<?xml version="1.0" encoding="UTF-8"?>
<svg id="Layer_1" xmlns="http://www.w3.org/2000/svg" version="1.1" xmlns:xlink="http://www.w3.org/1999/xlink" viewBox="0 0 38.1 33.1">
  <!-- Generator: Adobe Illustrator 29.8.2, SVG Export Plug-In . SVG Version: 2.1.1 Build 3)  -->
  <defs>
    <style>
      .st0 {
        stroke: #231f20;
        stroke-width: .9px;
      }

      .st0, .st1 {
        fill: none;
      }

      .st2 {
        fill: #fff;
      }

      .st3 {
        fill: #231f20;
      }

      .st4 {
        clip-path: url(#clippath);
      }
    </style>
    <clipPath id="clippath">
      <polyline class="st1" points="0 0 0 33.1 38.1 33.1 38.1 0"/>
    </clipPath>
  </defs>
  <path class="st2" d="M10.7,22.8s-1.7,2.7-3.2,2.4c-1.4-.2-5.8-4.3-5.8-11.8S5,.6,7.5.6s2.9,1.8,3.4,2.2"/>
  <g class="st4">
    <path class="st0" d="M10.7,22.8s-1.7,2.7-3.2,2.4c-1.4-.2-5.8-4.3-5.8-11.8S5,.6,7.5.6s2.9,1.8,3.4,2.2M4.5,23s1-14.6,5.9-11.4M3.1,20.5s1.1-16.7,7.3-11.9M1.7,14.1S4.6.1,10.4,5.6M6.4,14s.5,8,4,2M5.2,18.3s.7,7.8,5.3,1.2"/>
    <path class="st2" d="M27.4,22.7s1.7,2.7,3.2,2.4c1.4-.2,5.8-4.3,5.8-11.8S33.1.5,30.6.5s-2.9,1.8-3.4,2.2"/>
    <path class="st0" d="M27.4,22.7s1.7,2.7,3.2,2.4c1.4-.2,5.8-4.3,5.8-11.8S33.1.5,30.6.5s-2.9,1.8-3.4,2.2M33.6,22.9s-1-14.6-5.9-11.4M35,20.4s-1.1-16.7-7.3-11.9M36.4,14S33.5,0,27.7,5.5M31.7,13.9s-.5,8-4,2M32.9,18.2s-.7,7.8-5.3,1.2"/>
  </g>
  <polyline class="st3" points="28 1.7 28 23.4 9.9 23.4 9.9 1.7 28 1.7"/>
  <path class="st2" d="M19.2,16.5c.4,0,.7-.3.7-1.5s-.2-1.5-.7-1.5-.7.3-.7,1.5.2,1.5.7,1.5h0ZM19.9,11.1c0-.3,0-.5-.2-.7-.1-.1-.3-.2-.5-.2-.3,0-.6.3-.6.9v1.4h0c.2-.4.8-.7,1.5-.7,1.3,0,2.2.6,2.2,2.7s-1.1,3.4-3,3.4-3.1-.9-3.1-3.8v-1c0-2.8.4-4.4,3.1-4.4s2.8,1.1,2.9,2.3h-2.2"/>
  <path class="st3" d="M1,31.5h0c0,.6.1.9.7.9s.6-.2.6-.6-.2-.6-.9-.9c-.9-.3-1.3-.7-1.3-1.5s.6-1.5,1.5-1.5,1.5.4,1.5,1.3h0c0,.1-1,.1-1,.1,0-.5-.2-.7-.5-.7s-.6.3-.6.6,0,.5.5.7l.8.3c.8.3,1,.7,1,1.3,0,1.1-.6,1.5-1.7,1.5s-1.6-.5-1.6-1.5v-.2h1"/>
  <path class="st3" d="M4.8,28v3.5c0,.5.1.9.6.9s.6-.4.6-.9v-3.5h1v3.5c0,1.3-.8,1.6-1.6,1.6s-1.6-.3-1.6-1.6v-3.5h1"/>
  <path class="st3" d="M8.6,30.3h.4c.4,0,.7-.2.7-.7s-.2-.8-.7-.8h-.4v1.5h0ZM7.6,28h1.8c1,0,1.4.8,1.4,1.5s-.6,1.5-1.6,1.5h-.5v2h-1v-5"/>
  <polyline class="st3" points="14 28 14 28.9 12.2 28.9 12.2 30 13.9 30 13.9 30.9 12.2 30.9 12.2 32.2 14.1 32.2 14.1 33 11.2 33 11.2 28 14 28"/>
  <path class="st3" d="M15.6,30.2h.4c.5,0,.8-.2.8-.7s-.2-.7-.7-.7h-.5v1.4h0ZM14.6,28h1.9c.8,0,1.3.4,1.3,1.3s-.3,1.1-.8,1.2h0c.7.1.8.5.8,1.5,0,.5,0,.8.2.9h0s-1.1,0-1.1,0c0-.1-.1-.3-.1-.5v-1c0-.4-.2-.6-.6-.6h-.5v2.1h-1v-5"/>
  <path class="st3" d="M21.2,32.3h.4c.5,0,.8-.2.8-.8s-.3-.7-.8-.7h-.4v1.5h0ZM21.2,30.1h.3c.6,0,.8-.2.8-.7s-.2-.7-.7-.7h-.4v1.3h0ZM20.2,28h1.7c.8,0,1.4.3,1.4,1.3s-.3,1-.8,1.1h0c.6,0,.9.5.9,1.2s-.4,1.5-1.6,1.5h-1.7v-5"/>
  <path class="st3" d="M25,28v3.5c0,.5.1.9.6.9s.6-.4.6-.9v-3.5h1v3.5c0,1.3-.8,1.6-1.6,1.6s-1.6-.3-1.6-1.6v-3.5h1"/>
  <polyline class="st3" points="27.8 33 27.8 28 28.8 28 28.8 32.2 30.6 32.2 30.6 33 27.8 33"/>
  <polyline class="st3" points="32.1 28 32.1 30 32.1 30 33.4 28 34.5 28 33.1 30.2 34.6 33 33.5 33 32.4 31 32.1 31.5 32.1 33 31.1 33 31.1 28 32.1 28"/>
  <polyline class="st3" points="35.6 28 36.3 30 36.3 30 37 28 38.1 28 36.8 31.1 36.8 33 35.8 33 35.8 31.1 34.5 28 35.6 28"/>
</svg>