<?xml version="1.0" encoding="UTF-8"?>
<svg id="e" data-name="decrease" xmlns="http://www.w3.org/2000/svg" viewBox="0 0 600 600">
  <defs>
    <style>
      .g {
        opacity: .85;
      }

      .h {
        fill: #f2f2f2;
      }

      .i, .j {
        fill: #52682d;
      }

      .k {
        fill: #fff;
      }

      .j {
        stroke-width: 2.98px;
      }

      .j, .l {
        stroke: #fff;
      }

      .l {
        fill: none;
        stroke-linecap: round;
        stroke-miterlimit: 10;
        stroke-width: 3.05px;
      }

      .m {
        fill: #faaf40;
      }
    </style>
  </defs>
  <rect class="i" x="-8.61" y="-.89" width="616.77" height="601.35"/>
  <g>
    <path class="h" d="M285.85,195.61c5.84,16.22,6.49,30.87,1.43,32.72-5.06,1.86-13.9-9.78-19.75-26-5.85-16.2-6.49-30.86-1.44-32.71,5.06-1.85,13.91,9.79,19.76,25.98Z"/>
    <path class="h" d="M290.48,195.61c-5.85,16.22-6.5,30.87-1.44,32.72,5.06,1.86,13.9-9.78,19.75-26,5.85-16.2,6.49-30.86,1.44-32.71-5.06-1.85-13.91,9.79-19.75,25.98Z"/>
  </g>
  <g>
    <path class="h" d="M337.53,239.94c5.85,16.2,6.49,30.86,1.43,32.71-5.05,1.87-13.9-9.78-19.75-25.98-5.85-16.21-6.49-30.87-1.44-32.72,5.06-1.85,13.9,9.79,19.76,25.99Z"/>
    <path class="h" d="M342.16,239.94c-5.85,16.2-6.5,30.86-1.44,32.71,5.06,1.87,13.9-9.78,19.75-25.98,5.85-16.21,6.5-30.87,1.44-32.72-5.06-1.85-13.91,9.79-19.75,25.99Z"/>
  </g>
  <g>
    <path class="h" d="M285.85,239.94c5.84,16.2,6.49,30.86,1.43,32.71-5.06,1.87-13.9-9.78-19.75-25.98-5.85-16.21-6.49-30.87-1.44-32.72,5.06-1.85,13.91,9.79,19.76,25.99Z"/>
    <path class="h" d="M290.48,239.94c-5.85,16.2-6.5,30.86-1.44,32.71,5.06,1.87,13.9-9.78,19.75-25.98,5.85-16.21,6.49-30.87,1.44-32.72-5.06-1.85-13.91,9.79-19.75,25.99Z"/>
  </g>
  <g>
    <path class="m" d="M234.15,239.94c5.85,16.2,6.5,30.86,1.44,32.71-5.06,1.87-13.9-9.78-19.75-25.98-5.85-16.21-6.49-30.87-1.44-32.72,5.06-1.85,13.91,9.79,19.75,25.99Z"/>
    <path class="m" d="M238.78,239.94c-5.84,16.2-6.49,30.86-1.43,32.71,5.06,1.87,13.9-9.78,19.75-25.98,5.85-16.21,6.49-30.87,1.44-32.72-5.06-1.85-13.91,9.79-19.76,25.99Z"/>
  </g>
  <g>
    <path class="h" d="M389.22,284.26c5.85,16.22,6.49,30.86,1.43,32.71-5.05,1.87-13.9-9.77-19.75-25.99-5.85-16.21-6.49-30.85-1.43-32.71,5.05-1.85,13.9,9.78,19.75,25.99Z"/>
    <path class="h" d="M393.85,284.26c-5.85,16.22-6.49,30.86-1.44,32.71,5.06,1.87,13.91-9.77,19.75-25.99,5.85-16.21,6.5-30.85,1.43-32.71-5.06-1.85-13.9,9.78-19.75,25.99Z"/>
  </g>
  <g>
    <path class="h" d="M337.53,284.26c5.85,16.22,6.49,30.86,1.43,32.71-5.05,1.87-13.9-9.77-19.75-25.99-5.85-16.21-6.49-30.85-1.44-32.71,5.06-1.85,13.9,9.78,19.76,25.99Z"/>
    <path class="h" d="M342.16,284.26c-5.85,16.22-6.5,30.86-1.44,32.71,5.06,1.87,13.9-9.77,19.75-25.99,5.85-16.21,6.5-30.85,1.44-32.71-5.06-1.85-13.91,9.78-19.75,25.99Z"/>
  </g>
  <g>
    <path class="h" d="M285.85,284.26c5.84,16.22,6.49,30.86,1.43,32.71-5.06,1.87-13.9-9.77-19.75-25.99-5.85-16.21-6.49-30.85-1.44-32.71,5.06-1.85,13.91,9.78,19.76,25.99Z"/>
    <path class="h" d="M290.48,284.26c-5.85,16.22-6.5,30.86-1.44,32.71,5.06,1.87,13.9-9.77,19.75-25.99,5.85-16.21,6.49-30.85,1.44-32.71-5.06-1.85-13.91,9.78-19.75,25.99Z"/>
  </g>
  <g>
    <path class="h" d="M234.15,284.26c5.85,16.22,6.5,30.86,1.44,32.71-5.06,1.87-13.9-9.77-19.75-25.99-5.85-16.21-6.49-30.85-1.44-32.71,5.06-1.85,13.91,9.78,19.75,25.99Z"/>
    <path class="h" d="M238.78,284.26c-5.84,16.22-6.49,30.86-1.43,32.71,5.06,1.87,13.9-9.77,19.75-25.99,5.85-16.21,6.49-30.85,1.44-32.71-5.06-1.85-13.91,9.78-19.76,25.99Z"/>
  </g>
  <g>
    <path class="m" d="M182.46,284.26c5.85,16.22,6.5,30.86,1.44,32.71-5.06,1.87-13.9-9.77-19.75-25.99-5.85-16.21-6.5-30.85-1.44-32.71,5.06-1.85,13.9,9.78,19.75,25.99Z"/>
    <path class="m" d="M187.09,284.26c-5.85,16.22-6.49,30.86-1.43,32.71,5.05,1.87,13.9-9.77,19.75-25.99,5.85-16.21,6.49-30.85,1.44-32.71-5.06-1.85-13.91,9.78-19.76,25.99Z"/>
  </g>
  <g>
    <path class="h" d="M440.91,328.58c5.85,16.22,6.49,30.86,1.44,32.72-5.06,1.85-13.91-9.78-19.76-26-5.85-16.21-6.49-30.86-1.43-32.7,5.05-1.87,13.9,9.78,19.75,25.98Z"/>
    <path class="h" d="M445.54,328.58c-5.85,16.22-6.49,30.86-1.44,32.72,5.06,1.85,13.91-9.78,19.76-26,5.84-16.21,6.49-30.86,1.43-32.7-5.05-1.87-13.9,9.78-19.75,25.98Z"/>
  </g>
  <g>
    <path class="h" d="M389.22,328.58c5.85,16.22,6.49,30.86,1.43,32.72-5.05,1.85-13.9-9.78-19.75-26-5.85-16.21-6.49-30.86-1.43-32.7,5.05-1.87,13.9,9.78,19.75,25.98Z"/>
    <path class="h" d="M393.85,328.58c-5.85,16.22-6.49,30.86-1.44,32.72,5.06,1.85,13.91-9.78,19.75-26,5.85-16.21,6.5-30.86,1.43-32.7-5.06-1.87-13.9,9.78-19.75,25.98Z"/>
  </g>
  <g>
    <path class="h" d="M337.53,328.58c5.85,16.22,6.49,30.86,1.43,32.72-5.05,1.85-13.9-9.78-19.75-26-5.85-16.21-6.49-30.86-1.44-32.7,5.06-1.87,13.9,9.78,19.76,25.98Z"/>
    <path class="h" d="M342.16,328.58c-5.85,16.22-6.5,30.86-1.44,32.72,5.06,1.85,13.9-9.78,19.75-26,5.85-16.21,6.5-30.86,1.44-32.7-5.06-1.87-13.91,9.78-19.75,25.98Z"/>
  </g>
  <g>
    <path class="h" d="M285.85,328.58c5.84,16.22,6.49,30.86,1.43,32.72-5.06,1.85-13.9-9.78-19.75-26-5.85-16.21-6.49-30.86-1.44-32.7,5.06-1.87,13.91,9.78,19.76,25.98Z"/>
    <path class="h" d="M290.48,328.58c-5.85,16.22-6.5,30.86-1.44,32.72,5.06,1.85,13.9-9.78,19.75-26,5.85-16.21,6.49-30.86,1.44-32.7-5.06-1.87-13.91,9.78-19.75,25.98Z"/>
  </g>
  <g>
    <path class="h" d="M234.15,328.58c5.85,16.22,6.5,30.86,1.44,32.72-5.06,1.85-13.9-9.78-19.75-26-5.85-16.21-6.49-30.86-1.44-32.7,5.06-1.87,13.91,9.78,19.75,25.98Z"/>
    <path class="h" d="M238.78,328.58c-5.84,16.22-6.49,30.86-1.43,32.72,5.06,1.85,13.9-9.78,19.75-26,5.85-16.21,6.49-30.86,1.44-32.7-5.06-1.87-13.91,9.78-19.76,25.98Z"/>
  </g>
  <g>
    <path class="h" d="M492.6,372.9c5.85,16.22,6.49,30.87,1.44,32.72-5.06,1.85-13.91-9.78-19.76-26-5.84-16.19-6.49-30.85-1.43-32.71,5.06-1.85,13.9,9.79,19.75,25.99Z"/>
    <path class="h" d="M497.23,372.9c-5.85,16.22-6.49,30.87-1.44,32.72,5.06,1.85,13.91-9.78,19.76-26,5.85-16.19,6.49-30.85,1.43-32.71-5.05-1.85-13.9,9.79-19.75,25.99Z"/>
  </g>
  <g>
    <path class="h" d="M440.91,372.9c5.85,16.22,6.49,30.87,1.44,32.72-5.06,1.85-13.91-9.78-19.76-26-5.85-16.19-6.49-30.85-1.43-32.71,5.05-1.85,13.9,9.79,19.75,25.99Z"/>
    <path class="h" d="M445.54,372.9c-5.85,16.22-6.49,30.87-1.44,32.72,5.06,1.85,13.91-9.78,19.76-26,5.84-16.19,6.49-30.85,1.43-32.71-5.05-1.85-13.9,9.79-19.75,25.99Z"/>
  </g>
  <g>
    <path class="h" d="M389.22,372.9c5.85,16.22,6.49,30.87,1.43,32.72-5.05,1.85-13.9-9.78-19.75-26-5.85-16.19-6.49-30.85-1.43-32.71,5.05-1.85,13.9,9.79,19.75,25.99Z"/>
    <path class="h" d="M393.85,372.9c-5.85,16.22-6.49,30.87-1.44,32.72,5.06,1.85,13.91-9.78,19.75-26,5.85-16.19,6.5-30.85,1.43-32.71-5.06-1.85-13.9,9.79-19.75,25.99Z"/>
  </g>
  <g>
    <path class="h" d="M337.53,372.9c5.85,16.22,6.49,30.87,1.43,32.72-5.05,1.85-13.9-9.78-19.75-26-5.85-16.19-6.49-30.85-1.44-32.71,5.06-1.85,13.9,9.79,19.76,25.99Z"/>
    <path class="h" d="M342.16,372.9c-5.85,16.22-6.5,30.87-1.44,32.72,5.06,1.85,13.9-9.78,19.75-26,5.85-16.19,6.5-30.85,1.44-32.71-5.06-1.85-13.91,9.79-19.75,25.99Z"/>
  </g>
  <g>
    <path class="h" d="M285.85,372.9c5.84,16.22,6.49,30.87,1.43,32.72-5.06,1.85-13.9-9.78-19.75-26-5.85-16.19-6.49-30.85-1.44-32.71,5.06-1.85,13.91,9.79,19.76,25.99Z"/>
    <path class="h" d="M290.48,372.9c-5.85,16.22-6.5,30.87-1.44,32.72,5.06,1.85,13.9-9.78,19.75-26,5.85-16.19,6.49-30.85,1.44-32.71-5.06-1.85-13.91,9.79-19.75,25.99Z"/>
  </g>
  <g>
    <path class="h" d="M492.6,417.23c5.85,16.2,6.49,30.86,1.44,32.71-5.06,1.85-13.91-9.78-19.76-25.99-5.84-16.22-6.49-30.87-1.43-32.72,5.06-1.85,13.9,9.79,19.75,26Z"/>
    <path class="h" d="M497.23,417.23c-5.85,16.2-6.49,30.86-1.44,32.71,5.06,1.85,13.91-9.78,19.76-25.99,5.85-16.22,6.49-30.87,1.43-32.72-5.05-1.85-13.9,9.79-19.75,26Z"/>
  </g>
  <g>
    <path class="h" d="M440.91,417.23c5.85,16.2,6.49,30.86,1.44,32.71-5.06,1.85-13.91-9.78-19.76-25.99-5.85-16.22-6.49-30.87-1.43-32.72,5.05-1.85,13.9,9.79,19.75,26Z"/>
    <path class="h" d="M445.54,417.23c-5.85,16.2-6.49,30.86-1.44,32.71,5.06,1.85,13.91-9.78,19.76-25.99,5.84-16.22,6.49-30.87,1.43-32.72-5.05-1.85-13.9,9.79-19.75,26Z"/>
  </g>
  <g>
    <path class="h" d="M389.22,417.23c5.85,16.2,6.49,30.86,1.43,32.71-5.05,1.85-13.9-9.78-19.75-25.99-5.85-16.22-6.49-30.87-1.43-32.72,5.05-1.85,13.9,9.79,19.75,26Z"/>
    <path class="h" d="M393.85,417.23c-5.85,16.2-6.49,30.86-1.44,32.71,5.06,1.85,13.91-9.78,19.75-25.99,5.85-16.22,6.5-30.87,1.43-32.72-5.06-1.85-13.9,9.79-19.75,26Z"/>
  </g>
  <g>
    <path class="h" d="M337.53,417.23c5.85,16.2,6.49,30.86,1.43,32.71-5.05,1.85-13.9-9.78-19.75-25.99-5.85-16.22-6.49-30.87-1.44-32.72,5.06-1.85,13.9,9.79,19.76,26Z"/>
    <path class="h" d="M342.16,417.23c-5.85,16.2-6.5,30.86-1.44,32.71,5.06,1.85,13.9-9.78,19.75-25.99,5.85-16.22,6.5-30.87,1.44-32.72-5.06-1.85-13.91,9.79-19.75,26Z"/>
  </g>
  <g>
    <path class="h" d="M492.6,461.55c5.85,16.21,6.49,30.86,1.44,32.7-5.06,1.86-13.91-9.77-19.76-25.98-5.84-16.22-6.49-30.86-1.43-32.72,5.06-1.85,13.9,9.79,19.75,26Z"/>
    <path class="h" d="M497.23,461.55c-5.85,16.21-6.49,30.86-1.44,32.7,5.06,1.86,13.91-9.77,19.76-25.98,5.85-16.22,6.49-30.86,1.43-32.72-5.05-1.85-13.9,9.79-19.75,26Z"/>
  </g>
  <g>
    <path class="h" d="M440.91,461.55c5.85,16.21,6.49,30.86,1.44,32.7-5.06,1.86-13.91-9.77-19.76-25.98-5.85-16.22-6.49-30.86-1.43-32.72,5.05-1.85,13.9,9.79,19.75,26Z"/>
    <path class="h" d="M445.54,461.55c-5.85,16.21-6.49,30.86-1.44,32.7,5.06,1.86,13.91-9.77,19.76-25.98,5.84-16.22,6.49-30.86,1.43-32.72-5.05-1.85-13.9,9.79-19.75,26Z"/>
  </g>
  <g>
    <path class="h" d="M389.22,461.55c5.85,16.21,6.49,30.86,1.43,32.7-5.05,1.86-13.9-9.77-19.75-25.98-5.85-16.22-6.49-30.86-1.43-32.72,5.05-1.85,13.9,9.79,19.75,26Z"/>
    <path class="h" d="M393.85,461.55c-5.85,16.21-6.49,30.86-1.44,32.7,5.06,1.86,13.91-9.77,19.75-25.98,5.85-16.22,6.5-30.86,1.43-32.72-5.06-1.85-13.9,9.79-19.75,26Z"/>
  </g>
  <g>
    <path class="h" d="M440.91,505.87c5.85,16.21,6.49,30.85,1.44,32.7-5.06,1.87-13.91-9.76-19.76-25.98-5.85-16.21-6.49-30.85-1.43-32.71,5.05-1.87,13.9,9.77,19.75,25.99Z"/>
    <path class="h" d="M445.54,505.87c-5.85,16.21-6.49,30.85-1.44,32.7,5.06,1.87,13.91-9.76,19.76-25.98,5.84-16.21,6.49-30.85,1.43-32.71-5.05-1.87-13.9,9.77-19.75,25.99Z"/>
  </g>
  <g>
    <path class="h" d="M492.6,284.26c5.85,16.22,6.49,30.86,1.44,32.71-5.06,1.87-13.91-9.77-19.76-25.99-5.84-16.21-6.49-30.85-1.43-32.71,5.06-1.85,13.9,9.78,19.75,25.99Z"/>
    <path class="h" d="M497.23,284.26c-5.85,16.22-6.49,30.86-1.44,32.71,5.06,1.87,13.91-9.77,19.76-25.99,5.85-16.21,6.49-30.85,1.43-32.71-5.05-1.85-13.9,9.78-19.75,25.99Z"/>
  </g>
  <g>
    <path class="h" d="M182.46,372.9c5.85,16.22,6.5,30.87,1.44,32.72-5.06,1.85-13.9-9.78-19.75-26-5.85-16.19-6.5-30.85-1.44-32.71,5.06-1.85,13.9,9.79,19.75,25.99Z"/>
    <path class="h" d="M187.09,372.9c-5.85,16.22-6.49,30.87-1.43,32.72,5.05,1.85,13.9-9.78,19.75-26,5.85-16.19,6.49-30.85,1.44-32.71-5.06-1.85-13.91,9.79-19.76,25.99Z"/>
  </g>
  <g>
    <path class="m" d="M130.77,372.9c5.85,16.22,6.49,30.87,1.44,32.72-5.06,1.85-13.91-9.78-19.76-26-5.84-16.19-6.49-30.85-1.43-32.71,5.06-1.85,13.9,9.79,19.75,25.99Z"/>
    <path class="m" d="M135.4,372.9c-5.85,16.22-6.49,30.87-1.43,32.72,5.05,1.85,13.9-9.78,19.75-26,5.85-16.19,6.49-30.85,1.43-32.71-5.05-1.85-13.9,9.79-19.75,25.99Z"/>
  </g>
  <g>
    <path class="h" d="M234.15,417.23c5.85,16.2,6.5,30.86,1.44,32.71-5.06,1.85-13.9-9.78-19.75-25.99-5.85-16.22-6.49-30.87-1.44-32.72,5.06-1.85,13.91,9.79,19.75,26Z"/>
    <path class="h" d="M238.78,417.23c-5.84,16.2-6.49,30.86-1.43,32.71,5.06,1.85,13.9-9.78,19.75-25.99,5.85-16.22,6.49-30.87,1.44-32.72-5.06-1.85-13.91,9.79-19.76,26Z"/>
  </g>
  <g>
    <path class="h" d="M182.46,417.23c5.85,16.2,6.5,30.86,1.44,32.71-5.06,1.85-13.9-9.78-19.75-25.99-5.85-16.22-6.5-30.87-1.44-32.72,5.06-1.85,13.9,9.79,19.75,26Z"/>
    <path class="h" d="M187.09,417.23c-5.85,16.2-6.49,30.86-1.43,32.71,5.05,1.85,13.9-9.78,19.75-25.99,5.85-16.22,6.49-30.87,1.44-32.72-5.06-1.85-13.91,9.79-19.76,26Z"/>
  </g>
  <g>
    <path class="m" d="M130.77,417.23c5.85,16.2,6.49,30.86,1.44,32.71-5.06,1.85-13.91-9.78-19.76-25.99-5.84-16.22-6.49-30.87-1.43-32.72,5.06-1.85,13.9,9.79,19.75,26Z"/>
    <path class="m" d="M135.4,417.23c-5.85,16.2-6.49,30.86-1.43,32.71,5.05,1.85,13.9-9.78,19.75-25.99,5.85-16.22,6.49-30.87,1.43-32.72-5.05-1.85-13.9,9.79-19.75,26Z"/>
  </g>
  <g>
    <path class="h" d="M182.46,461.55c5.85,16.21,6.5,30.86,1.44,32.7-5.06,1.86-13.9-9.77-19.75-25.98-5.85-16.22-6.5-30.86-1.44-32.72,5.06-1.85,13.9,9.79,19.75,26Z"/>
    <path class="h" d="M187.09,461.55c-5.85,16.21-6.49,30.86-1.43,32.7,5.05,1.86,13.9-9.77,19.75-25.98,5.85-16.22,6.49-30.86,1.44-32.72-5.06-1.85-13.91,9.79-19.76,26Z"/>
  </g>
  <g>
    <path class="h" d="M130.77,461.55c5.85,16.21,6.49,30.86,1.44,32.7-5.06,1.86-13.91-9.77-19.76-25.98-5.84-16.22-6.49-30.86-1.43-32.72,5.06-1.85,13.9,9.79,19.75,26Z"/>
    <path class="h" d="M135.4,461.55c-5.85,16.21-6.49,30.86-1.43,32.7,5.05,1.86,13.9-9.77,19.75-25.98,5.85-16.22,6.49-30.86,1.43-32.72-5.05-1.85-13.9,9.79-19.75,26Z"/>
  </g>
  <g>
    <path class="m" d="M79.09,461.55c5.85,16.21,6.49,30.86,1.44,32.7-5.06,1.86-13.91-9.77-19.76-25.98-5.84-16.22-6.49-30.86-1.43-32.72,5.05-1.85,13.9,9.79,19.75,26Z"/>
    <path class="m" d="M83.72,461.55c-5.85,16.21-6.49,30.86-1.44,32.7,5.06,1.86,13.91-9.77,19.76-25.98,5.84-16.22,6.49-30.86,1.43-32.72-5.05-1.85-13.9,9.79-19.75,26Z"/>
  </g>
  <g>
    <path class="h" d="M130.77,505.87c5.85,16.21,6.49,30.85,1.44,32.7-5.06,1.87-13.91-9.76-19.76-25.98-5.84-16.21-6.49-30.85-1.43-32.71,5.06-1.87,13.9,9.77,19.75,25.99Z"/>
    <path class="h" d="M135.4,505.87c-5.85,16.21-6.49,30.85-1.43,32.7,5.05,1.87,13.9-9.76,19.75-25.98,5.85-16.21,6.49-30.85,1.43-32.71-5.05-1.87-13.9,9.77-19.75,25.99Z"/>
  </g>
  <g>
    <path class="h" d="M492.6,151.3c5.85,16.21,6.49,30.87,1.44,32.72-5.06,1.86-13.91-9.77-19.76-25.99-5.84-16.21-6.49-30.86-1.43-32.72,5.06-1.87,13.9,9.79,19.75,25.99Z"/>
    <path class="h" d="M497.23,151.3c-5.85,16.21-6.49,30.87-1.44,32.72,5.06,1.86,13.91-9.77,19.76-25.99,5.85-16.21,6.49-30.86,1.43-32.72-5.05-1.87-13.9,9.79-19.75,25.99Z"/>
  </g>
  <g>
    <path class="h" d="M440.91,151.3c5.85,16.21,6.49,30.87,1.44,32.72-5.06,1.86-13.91-9.77-19.76-25.99-5.85-16.21-6.49-30.86-1.43-32.72,5.05-1.87,13.9,9.79,19.75,25.99Z"/>
    <path class="h" d="M445.54,151.3c-5.85,16.21-6.49,30.87-1.44,32.72,5.06,1.86,13.91-9.77,19.76-25.99,5.84-16.21,6.49-30.86,1.43-32.72-5.05-1.87-13.9,9.79-19.75,25.99Z"/>
  </g>
  <g>
    <path class="h" d="M389.22,151.3c5.85,16.21,6.49,30.87,1.43,32.72-5.05,1.86-13.9-9.77-19.75-25.99-5.85-16.21-6.49-30.86-1.43-32.72,5.05-1.87,13.9,9.79,19.75,25.99Z"/>
    <path class="h" d="M393.85,151.3c-5.85,16.21-6.49,30.87-1.44,32.72,5.06,1.86,13.91-9.77,19.75-25.99,5.85-16.21,6.5-30.86,1.43-32.72-5.06-1.87-13.9,9.79-19.75,25.99Z"/>
  </g>
  <g>
    <path class="h" d="M440.91,195.61c5.85,16.22,6.49,30.87,1.44,32.72-5.06,1.86-13.91-9.78-19.76-26-5.85-16.2-6.49-30.86-1.43-32.71,5.05-1.85,13.9,9.79,19.75,25.98Z"/>
    <path class="h" d="M445.54,195.61c-5.85,16.22-6.49,30.87-1.44,32.72,5.06,1.86,13.91-9.78,19.76-26,5.84-16.2,6.49-30.86,1.43-32.71-5.05-1.85-13.9,9.79-19.75,25.98Z"/>
  </g>
  <g>
    <path class="h" d="M285.85,505.87c5.84,16.21,6.49,30.85,1.43,32.7-5.06,1.87-13.9-9.76-19.75-25.98-5.85-16.21-6.49-30.85-1.44-32.71,5.06-1.87,13.91,9.77,19.76,25.99Z"/>
    <path class="h" d="M290.48,505.87c-5.85,16.21-6.5,30.85-1.44,32.7,5.06,1.87,13.9-9.76,19.75-25.98,5.85-16.21,6.49-30.85,1.44-32.71-5.06-1.87-13.91,9.77-19.75,25.99Z"/>
  </g>
  <g>
    <path class="h" d="M337.53,151.3c5.85,16.21,6.49,30.87,1.43,32.72-5.05,1.86-13.9-9.77-19.75-25.99-5.85-16.21-6.49-30.86-1.44-32.72,5.06-1.87,13.9,9.79,19.76,25.99Z"/>
    <path class="h" d="M342.16,151.3c-5.85,16.21-6.5,30.87-1.44,32.72,5.06,1.86,13.9-9.77,19.75-25.99,5.85-16.21,6.5-30.86,1.44-32.72-5.06-1.87-13.91,9.79-19.75,25.99Z"/>
  </g>
  <g>
    <path class="h" d="M285.85,151.3c5.84,16.21,6.49,30.87,1.43,32.72-5.06,1.86-13.9-9.77-19.75-25.99-5.85-16.21-6.49-30.86-1.44-32.72,5.06-1.87,13.91,9.79,19.76,25.99Z"/>
    <path class="h" d="M290.48,151.3c-5.85,16.21-6.5,30.87-1.44,32.72,5.06,1.86,13.9-9.77,19.75-25.99,5.85-16.21,6.49-30.86,1.44-32.72-5.06-1.87-13.91,9.79-19.75,25.99Z"/>
  </g>
  <g>
    <path class="m" d="M234.15,151.3c5.85,16.21,6.5,30.87,1.44,32.72-5.06,1.86-13.9-9.77-19.75-25.99-5.85-16.21-6.49-30.86-1.44-32.72,5.06-1.87,13.91,9.79,19.75,25.99Z"/>
    <path class="m" d="M238.78,151.3c-5.84,16.21-6.49,30.87-1.43,32.72,5.06,1.86,13.9-9.77,19.75-25.99,5.85-16.21,6.49-30.86,1.44-32.72-5.06-1.87-13.91,9.79-19.76,25.99Z"/>
  </g>
  <g>
    <path class="h" d="M492.6,195.61c5.85,16.22,6.49,30.87,1.44,32.72-5.06,1.86-13.91-9.78-19.76-26-5.84-16.2-6.49-30.86-1.43-32.71,5.06-1.85,13.9,9.79,19.75,25.98Z"/>
    <path class="h" d="M497.23,195.61c-5.85,16.22-6.49,30.87-1.44,32.72,5.06,1.86,13.91-9.78,19.76-26,5.85-16.2,6.49-30.86,1.43-32.71-5.05-1.85-13.9,9.79-19.75,25.98Z"/>
  </g>
  <g>
    <path class="h" d="M389.22,195.61c5.85,16.22,6.49,30.87,1.43,32.72-5.05,1.86-13.9-9.78-19.75-26-5.85-16.2-6.49-30.86-1.43-32.71,5.05-1.85,13.9,9.79,19.75,25.98Z"/>
    <path class="h" d="M393.85,195.61c-5.85,16.22-6.49,30.87-1.44,32.72,5.06,1.86,13.91-9.78,19.75-26,5.85-16.2,6.5-30.86,1.43-32.71-5.06-1.85-13.9,9.79-19.75,25.98Z"/>
  </g>
  <g>
    <path class="h" d="M337.53,195.61c5.85,16.22,6.49,30.87,1.43,32.72-5.05,1.86-13.9-9.78-19.75-26-5.85-16.2-6.49-30.86-1.44-32.71,5.06-1.85,13.9,9.79,19.76,25.98Z"/>
    <path class="h" d="M342.16,195.61c-5.85,16.22-6.5,30.87-1.44,32.72,5.06,1.86,13.9-9.78,19.75-26,5.85-16.2,6.5-30.86,1.44-32.71-5.06-1.85-13.91,9.79-19.75,25.98Z"/>
  </g>
  <g>
    <path class="m" d="M234.15,195.61c5.85,16.22,6.5,30.87,1.44,32.72-5.06,1.86-13.9-9.78-19.75-26-5.85-16.2-6.49-30.86-1.44-32.71,5.06-1.85,13.91,9.79,19.75,25.98Z"/>
    <path class="m" d="M238.78,195.61c-5.84,16.22-6.49,30.87-1.43,32.72,5.06,1.86,13.9-9.78,19.75-26,5.85-16.2,6.49-30.86,1.44-32.71-5.06-1.85-13.91,9.79-19.76,25.98Z"/>
  </g>
  <g>
    <path class="h" d="M492.6,239.94c5.85,16.2,6.49,30.86,1.44,32.71-5.06,1.87-13.91-9.78-19.76-25.98-5.84-16.21-6.49-30.87-1.43-32.72,5.06-1.85,13.9,9.79,19.75,25.99Z"/>
    <path class="h" d="M497.23,239.94c-5.85,16.2-6.49,30.86-1.44,32.71,5.06,1.87,13.91-9.78,19.76-25.98,5.85-16.21,6.49-30.87,1.43-32.72-5.05-1.85-13.9,9.79-19.75,25.99Z"/>
  </g>
  <g>
    <path class="h" d="M440.91,239.94c5.85,16.2,6.49,30.86,1.44,32.71-5.06,1.87-13.91-9.78-19.76-25.98-5.85-16.21-6.49-30.87-1.43-32.72,5.05-1.85,13.9,9.79,19.75,25.99Z"/>
    <path class="h" d="M445.54,239.94c-5.85,16.2-6.49,30.86-1.44,32.71,5.06,1.87,13.91-9.78,19.76-25.98,5.84-16.21,6.49-30.87,1.43-32.72-5.05-1.85-13.9,9.79-19.75,25.99Z"/>
  </g>
  <g>
    <path class="h" d="M389.22,239.94c5.85,16.2,6.49,30.86,1.43,32.71-5.05,1.87-13.9-9.78-19.75-25.98-5.85-16.21-6.49-30.87-1.43-32.72,5.05-1.85,13.9,9.79,19.75,25.99Z"/>
    <path class="h" d="M393.85,239.94c-5.85,16.2-6.49,30.86-1.44,32.71,5.06,1.87,13.91-9.78,19.75-25.98,5.85-16.21,6.5-30.87,1.43-32.72-5.06-1.85-13.9,9.79-19.75,25.99Z"/>
  </g>
  <g>
    <path class="h" d="M440.91,284.26c5.85,16.22,6.49,30.86,1.44,32.71-5.06,1.87-13.91-9.77-19.76-25.99-5.85-16.21-6.49-30.85-1.43-32.71,5.05-1.85,13.9,9.78,19.75,25.99Z"/>
    <path class="h" d="M445.54,284.26c-5.85,16.22-6.49,30.86-1.44,32.71,5.06,1.87,13.91-9.77,19.76-25.99,5.84-16.21,6.49-30.85,1.43-32.71-5.05-1.85-13.9,9.78-19.75,25.99Z"/>
  </g>
  <g>
    <path class="h" d="M492.6,328.58c5.85,16.22,6.49,30.86,1.44,32.72-5.06,1.85-13.91-9.78-19.76-26-5.84-16.21-6.49-30.86-1.43-32.7,5.06-1.87,13.9,9.78,19.75,25.98Z"/>
    <path class="h" d="M497.23,328.58c-5.85,16.22-6.49,30.86-1.44,32.72,5.06,1.85,13.91-9.78,19.76-26,5.85-16.21,6.49-30.86,1.43-32.7-5.05-1.87-13.9,9.78-19.75,25.98Z"/>
  </g>
  <g>
    <path class="m" d="M182.46,328.58c5.85,16.22,6.5,30.86,1.44,32.72-5.06,1.85-13.9-9.78-19.75-26-5.85-16.21-6.5-30.86-1.44-32.7,5.06-1.87,13.9,9.78,19.75,25.98Z"/>
    <path class="m" d="M187.09,328.58c-5.85,16.22-6.49,30.86-1.43,32.72,5.05,1.85,13.9-9.78,19.75-26,5.85-16.21,6.49-30.86,1.44-32.7-5.06-1.87-13.91,9.78-19.76,25.98Z"/>
  </g>
  <g>
    <path class="h" d="M234.15,372.9c5.85,16.22,6.5,30.87,1.44,32.72-5.06,1.85-13.9-9.78-19.75-26-5.85-16.19-6.49-30.85-1.44-32.71,5.06-1.85,13.91,9.79,19.75,25.99Z"/>
    <path class="h" d="M238.78,372.9c-5.84,16.22-6.49,30.87-1.43,32.72,5.06,1.85,13.9-9.78,19.75-26,5.85-16.19,6.49-30.85,1.44-32.71-5.06-1.85-13.91,9.79-19.76,25.99Z"/>
  </g>
  <g>
    <path class="h" d="M285.85,417.23c5.84,16.2,6.49,30.86,1.43,32.71-5.06,1.85-13.9-9.78-19.75-25.99-5.85-16.22-6.49-30.87-1.44-32.72,5.06-1.85,13.91,9.79,19.76,26Z"/>
    <path class="h" d="M290.48,417.23c-5.85,16.2-6.5,30.86-1.44,32.71,5.06,1.85,13.9-9.78,19.75-25.99,5.85-16.22,6.49-30.87,1.44-32.72-5.06-1.85-13.91,9.79-19.75,26Z"/>
  </g>
  <g>
    <path class="h" d="M337.53,461.55c5.85,16.21,6.49,30.86,1.43,32.7-5.05,1.86-13.9-9.77-19.75-25.98-5.85-16.22-6.49-30.86-1.44-32.72,5.06-1.85,13.9,9.79,19.76,26Z"/>
    <path class="h" d="M342.16,461.55c-5.85,16.21-6.5,30.86-1.44,32.7,5.06,1.86,13.9-9.77,19.75-25.98,5.85-16.22,6.5-30.86,1.44-32.72-5.06-1.85-13.91,9.79-19.75,26Z"/>
  </g>
  <g>
    <path class="h" d="M285.85,461.55c5.84,16.21,6.49,30.86,1.43,32.7-5.06,1.86-13.9-9.77-19.75-25.98-5.85-16.22-6.49-30.86-1.44-32.72,5.06-1.85,13.91,9.79,19.76,26Z"/>
    <path class="h" d="M290.48,461.55c-5.85,16.21-6.5,30.86-1.44,32.7,5.06,1.86,13.9-9.77,19.75-25.98,5.85-16.22,6.49-30.86,1.44-32.72-5.06-1.85-13.91,9.79-19.75,26Z"/>
  </g>
  <g>
    <path class="h" d="M234.15,461.55c5.85,16.21,6.5,30.86,1.44,32.7-5.06,1.86-13.9-9.77-19.75-25.98-5.85-16.22-6.49-30.86-1.44-32.72,5.06-1.85,13.91,9.79,19.75,26Z"/>
    <path class="h" d="M238.78,461.55c-5.84,16.21-6.49,30.86-1.43,32.7,5.06,1.86,13.9-9.77,19.75-25.98,5.85-16.22,6.49-30.86,1.44-32.72-5.06-1.85-13.91,9.79-19.76,26Z"/>
  </g>
  <g>
    <path class="h" d="M492.6,505.87c5.85,16.21,6.49,30.85,1.44,32.7-5.06,1.87-13.91-9.76-19.76-25.98-5.84-16.21-6.49-30.85-1.43-32.71,5.06-1.87,13.9,9.77,19.75,25.99Z"/>
    <path class="h" d="M497.23,505.87c-5.85,16.21-6.49,30.85-1.44,32.7,5.06,1.87,13.91-9.76,19.76-25.98,5.85-16.21,6.49-30.85,1.43-32.71-5.05-1.87-13.9,9.77-19.75,25.99Z"/>
  </g>
  <g>
    <path class="h" d="M389.22,505.87c5.85,16.21,6.49,30.85,1.43,32.7-5.05,1.87-13.9-9.76-19.75-25.98-5.85-16.21-6.49-30.85-1.43-32.71,5.05-1.87,13.9,9.77,19.75,25.99Z"/>
    <path class="h" d="M393.85,505.87c-5.85,16.21-6.49,30.85-1.44,32.7,5.06,1.87,13.91-9.76,19.75-25.98,5.85-16.21,6.5-30.85,1.43-32.71-5.06-1.87-13.9,9.77-19.75,25.99Z"/>
  </g>
  <g>
    <path class="h" d="M337.53,505.87c5.85,16.21,6.49,30.85,1.43,32.7-5.05,1.87-13.9-9.76-19.75-25.98-5.85-16.21-6.49-30.85-1.44-32.71,5.06-1.87,13.9,9.77,19.76,25.99Z"/>
    <path class="h" d="M342.16,505.87c-5.85,16.21-6.5,30.85-1.44,32.7,5.06,1.87,13.9-9.76,19.75-25.98,5.85-16.21,6.5-30.85,1.44-32.71-5.06-1.87-13.91,9.77-19.75,25.99Z"/>
  </g>
  <g>
    <path class="h" d="M234.15,505.87c5.85,16.21,6.5,30.85,1.44,32.7-5.06,1.87-13.9-9.76-19.75-25.98-5.85-16.21-6.49-30.85-1.44-32.71,5.06-1.87,13.91,9.77,19.75,25.99Z"/>
    <path class="h" d="M238.78,505.87c-5.84,16.21-6.49,30.85-1.43,32.7,5.06,1.87,13.9-9.76,19.75-25.98,5.85-16.21,6.49-30.85,1.44-32.71-5.06-1.87-13.91,9.77-19.76,25.99Z"/>
  </g>
  <g>
    <path class="h" d="M182.46,505.87c5.85,16.21,6.5,30.85,1.44,32.7-5.06,1.87-13.9-9.76-19.75-25.98-5.85-16.21-6.5-30.85-1.44-32.71,5.06-1.87,13.9,9.77,19.75,25.99Z"/>
    <path class="h" d="M187.09,505.87c-5.85,16.21-6.49,30.85-1.43,32.7,5.05,1.87,13.9-9.76,19.75-25.98,5.85-16.21,6.49-30.85,1.44-32.71-5.06-1.87-13.91,9.77-19.76,25.99Z"/>
  </g>
  <g>
    <path class="m" d="M79.09,505.87c5.85,16.21,6.49,30.85,1.44,32.7-5.06,1.87-13.91-9.76-19.76-25.98-5.84-16.21-6.49-30.85-1.43-32.71,5.05-1.87,13.9,9.77,19.75,25.99Z"/>
    <path class="m" d="M83.72,505.87c-5.85,16.21-6.49,30.85-1.44,32.7,5.06,1.87,13.91-9.76,19.76-25.98,5.84-16.21,6.49-30.85,1.43-32.71-5.05-1.87-13.9,9.77-19.75,25.99Z"/>
  </g>
  <g>
    <path class="k" d="M136.11,25.34c2.17,1.11,3.83,2.68,4.99,4.74,1.16,2.05,1.74,4.47,1.74,7.25s-.58,5.19-1.74,7.23-2.82,3.6-4.99,4.68c-2.17,1.08-4.74,1.62-7.7,1.62h-8.46v-27.18h8.46c2.96,0,5.53.55,7.7,1.66ZM136.44,45.15c1.85-1.86,2.77-4.47,2.77-7.82s-.93-6.02-2.79-7.92c-1.86-1.9-4.53-2.85-8.01-2.85h-4.91v21.37h4.91c3.51,0,6.19-.93,8.03-2.79Z"/>
    <path class="k" d="M151.07,26.57v9.09h9.91v2.92h-9.91v9.36h11.08v2.92h-14.62v-27.22h14.62v2.93h-11.08Z"/>
    <path class="k" d="M167.99,30.1c1.2-2.12,2.83-3.78,4.89-4.97,2.07-1.2,4.36-1.79,6.88-1.79,2.96,0,5.55.72,7.76,2.15,2.21,1.43,3.82,3.46,4.84,6.08h-4.25c-.75-1.64-1.84-2.9-3.26-3.78-1.42-.88-3.11-1.33-5.09-1.33s-3.6.44-5.11,1.33c-1.51.88-2.69,2.14-3.55,3.76-.86,1.63-1.29,3.53-1.29,5.71s.43,4.05,1.29,5.67c.86,1.62,2.04,2.88,3.55,3.76,1.51.88,3.21,1.33,5.11,1.33s3.67-.44,5.09-1.31c1.42-.87,2.5-2.13,3.26-3.76h4.25c-1.01,2.6-2.63,4.61-4.84,6.03-2.21,1.42-4.8,2.13-7.76,2.13-2.52,0-4.82-.59-6.88-1.77-2.07-1.18-3.7-2.83-4.89-4.93s-1.79-4.48-1.79-7.14.6-5.04,1.79-7.16Z"/>
    <path class="k" d="M211.95,50.86l-6.47-11.12h-4.29v11.12h-3.55v-27.18h8.78c2.05,0,3.79.35,5.21,1.05,1.42.7,2.48,1.65,3.18,2.85.7,1.2,1.05,2.56,1.05,4.1,0,1.87-.54,3.52-1.62,4.95-1.08,1.43-2.7,2.38-4.86,2.85l6.83,11.39h-4.25ZM201.18,36.9h5.23c1.92,0,3.37-.47,4.33-1.42.96-.95,1.44-2.22,1.44-3.8s-.47-2.86-1.42-3.74c-.95-.88-2.4-1.33-4.35-1.33h-5.23v10.3Z"/>
    <path class="k" d="M224.89,26.57v9.09h9.91v2.92h-9.91v9.36h11.08v2.92h-14.62v-27.22h14.62v2.93h-11.08Z"/>
    <path class="k" d="M257.42,44.82h-11.86l-2.18,6.04h-3.74l9.83-27.03h4.09l9.79,27.03h-3.74l-2.18-6.04ZM256.4,41.93l-4.91-13.73-4.91,13.73h9.83Z"/>
    <path class="k" d="M271.44,50.18c-1.42-.64-2.53-1.52-3.33-2.65s-1.22-2.44-1.25-3.92h3.78c.13,1.27.66,2.35,1.58,3.22.92.87,2.27,1.31,4.04,1.31s3.02-.42,4-1.27c.98-.84,1.46-1.93,1.46-3.26,0-1.04-.29-1.88-.86-2.54-.57-.65-1.29-1.14-2.14-1.48-.86-.34-2.02-.7-3.47-1.09-1.79-.47-3.23-.94-4.31-1.4-1.08-.47-2-1.2-2.77-2.2-.77-1-1.15-2.35-1.15-4.04,0-1.48.38-2.79,1.13-3.94s1.81-2.03,3.18-2.65,2.93-.94,4.7-.94c2.55,0,4.63.64,6.26,1.91,1.62,1.27,2.54,2.96,2.75,5.07h-3.9c-.13-1.04-.68-1.96-1.64-2.75-.96-.79-2.24-1.19-3.82-1.19-1.48,0-2.69.38-3.63,1.15-.94.77-1.4,1.84-1.4,3.22,0,.99.28,1.79.84,2.42.56.62,1.25,1.1,2.07,1.42.82.33,1.97.7,3.45,1.11,1.79.49,3.24.98,4.33,1.46,1.09.48,2.03,1.22,2.81,2.22s1.17,2.36,1.17,4.08c0,1.33-.35,2.57-1.05,3.74s-1.74,2.12-3.12,2.85c-1.38.73-3,1.09-4.88,1.09s-3.4-.32-4.82-.96Z"/>
    <path class="k" d="M294.08,26.57v9.09h9.91v2.92h-9.91v9.36h11.08v2.92h-14.62v-27.22h14.62v2.93h-11.08Z"/>
    <path class="k" d="M319.43,25.9v-3.24h7.33v28.2h-3.59v-24.96h-3.74Z"/>
    <path class="k" d="M347,50.38c-1.3-.56-2.33-1.34-3.08-2.34-.75-1-1.17-2.15-1.25-3.45h3.67c.1,1.07.6,1.94,1.5,2.61.9.68,2.07,1.01,3.53,1.01,1.35,0,2.42-.3,3.2-.9.78-.6,1.17-1.35,1.17-2.26s-.42-1.63-1.25-2.09c-.83-.45-2.12-.9-3.86-1.35-1.59-.42-2.88-.84-3.88-1.27-1-.43-1.86-1.07-2.57-1.91-.72-.84-1.07-1.96-1.07-3.33,0-1.09.33-2.09.98-3,.65-.91,1.57-1.63,2.77-2.16,1.2-.53,2.56-.8,4.09-.8,2.37,0,4.28.6,5.73,1.79,1.46,1.2,2.24,2.83,2.34,4.91h-3.55c-.08-1.12-.53-2.01-1.35-2.69-.82-.68-1.92-1.01-3.29-1.01-1.27,0-2.29.27-3.04.82-.75.55-1.13,1.26-1.13,2.15,0,.7.23,1.28.68,1.74.46.46,1.03.82,1.72,1.09.69.27,1.64.58,2.87.92,1.53.42,2.78.83,3.74,1.23.96.4,1.79,1.01,2.48,1.81.69.81,1.05,1.86,1.07,3.16,0,1.17-.33,2.22-.98,3.16-.65.94-1.57,1.67-2.75,2.2-1.18.53-2.54.8-4.08.8-1.64,0-3.11-.28-4.41-.84Z"/>
    <path class="k" d="M368.53,32.42v12.6c0,1.04.22,1.77.66,2.2.44.43,1.21.64,2.3.64h2.61v3h-3.2c-1.98,0-3.46-.45-4.45-1.37-.99-.91-1.48-2.4-1.48-4.48v-12.6h-2.77v-2.93h2.77v-5.38h3.55v5.38h5.58v2.93h-5.58Z"/>
    <path class="k" d="M378.51,25.32c-.47-.47-.7-1.04-.7-1.72s.23-1.25.7-1.72c.47-.47,1.04-.7,1.72-.7s1.2.23,1.66.7c.46.47.68,1.04.68,1.72s-.23,1.25-.68,1.72c-.46.47-1.01.7-1.66.7s-1.25-.23-1.72-.7ZM381.94,29.49v21.37h-3.55v-21.37h3.55Z"/>
    <path class="k" d="M392.32,32.42v12.6c0,1.04.22,1.77.66,2.2.44.43,1.21.64,2.3.64h2.61v3h-3.2c-1.98,0-3.46-.45-4.45-1.37-.99-.91-1.48-2.4-1.48-4.48v-12.6h-2.77v-2.93h2.77v-5.38h3.55v5.38h5.58v2.93h-5.58Z"/>
    <path class="k" d="M402.18,34.35c.88-1.65,2.11-2.93,3.69-3.84,1.57-.91,3.37-1.37,5.4-1.37,2.63,0,4.79.64,6.49,1.91,1.7,1.27,2.83,3.04,3.37,5.3h-3.82c-.36-1.3-1.07-2.33-2.12-3.08-1.05-.75-2.36-1.13-3.92-1.13-2.03,0-3.67.7-4.91,2.09-1.25,1.39-1.87,3.36-1.87,5.91s.62,4.56,1.87,5.97c1.25,1.4,2.89,2.11,4.91,2.11,1.56,0,2.86-.36,3.9-1.09,1.04-.73,1.75-1.77,2.14-3.12h3.82c-.57,2.18-1.72,3.93-3.43,5.25-1.72,1.31-3.86,1.97-6.44,1.97-2.03,0-3.83-.45-5.4-1.37-1.57-.91-2.8-2.2-3.69-3.86-.88-1.66-1.33-3.61-1.33-5.85s.44-4.14,1.33-5.79Z"/>
    <path class="k" d="M440.83,30.14c1.3.69,2.32,1.72,3.06,3.1.74,1.38,1.11,3.06,1.11,5.03v12.6h-3.51v-12.09c0-2.13-.53-3.76-1.6-4.89-1.07-1.13-2.52-1.7-4.37-1.7s-3.36.58-4.46,1.76c-1.11,1.17-1.66,2.87-1.66,5.11v11.82h-3.55v-28.86h3.55v10.53c.7-1.09,1.67-1.94,2.91-2.54,1.24-.6,2.62-.9,4.15-.9,1.61,0,3.07.35,4.37,1.03Z"/>
    <path class="k" d="M82.88,81.5h-17.08c.13,2.11.85,3.75,2.17,4.93,1.31,1.18,2.91,1.77,4.78,1.77,1.53,0,2.81-.36,3.84-1.07,1.03-.71,1.75-1.67,2.16-2.87h3.82c-.57,2.05-1.72,3.72-3.43,5.01-1.72,1.29-3.85,1.93-6.4,1.93-2.03,0-3.84-.45-5.44-1.37-1.6-.91-2.85-2.2-3.76-3.88-.91-1.68-1.37-3.62-1.37-5.83s.44-4.15,1.33-5.81c.88-1.66,2.13-2.94,3.72-3.84s3.44-1.35,5.52-1.35,3.82.44,5.38,1.33c1.56.88,2.76,2.1,3.61,3.65.84,1.55,1.27,3.3,1.27,5.25,0,.68-.04,1.39-.12,2.15ZM78.43,75.13c-.6-.98-1.41-1.72-2.44-2.22-1.03-.51-2.17-.76-3.41-.76-1.79,0-3.32.57-4.58,1.72-1.26,1.14-1.98,2.73-2.17,4.76h13.49c0-1.35-.3-2.52-.9-3.49Z"/>
    <path class="k" d="M95.63,87.59l6.63-18.1h3.78l-8.38,21.37h-4.13l-8.38-21.37h3.82l6.67,18.1Z"/>
    <path class="k" d="M128.93,81.5h-17.08c.13,2.11.85,3.75,2.17,4.93,1.31,1.18,2.91,1.77,4.78,1.77,1.53,0,2.81-.36,3.84-1.07,1.03-.71,1.75-1.67,2.16-2.87h3.82c-.57,2.05-1.72,3.72-3.43,5.01-1.72,1.29-3.85,1.93-6.4,1.93-2.03,0-3.84-.45-5.44-1.37-1.6-.91-2.85-2.2-3.76-3.88-.91-1.68-1.37-3.62-1.37-5.83s.44-4.15,1.33-5.81c.88-1.66,2.13-2.94,3.72-3.84s3.44-1.35,5.52-1.35,3.82.44,5.38,1.33c1.56.88,2.76,2.1,3.61,3.65.84,1.55,1.27,3.3,1.27,5.25,0,.68-.04,1.39-.12,2.15ZM124.49,75.13c-.6-.98-1.41-1.72-2.44-2.22-1.03-.51-2.17-.76-3.41-.76-1.79,0-3.32.57-4.58,1.72-1.26,1.14-1.98,2.73-2.17,4.76h13.49c0-1.35-.3-2.52-.9-3.49Z"/>
    <path class="k" d="M139.95,70.12c1.16-.68,2.57-1.01,4.23-1.01v3.67h-.94c-3.98,0-5.97,2.16-5.97,6.47v11.62h-3.55v-21.37h3.55v3.47c.62-1.22,1.51-2.17,2.67-2.85Z"/>
    <path class="k" d="M166.69,69.49l-12.87,31.43h-3.67l4.21-10.3-8.62-21.14h3.94l6.71,17.32,6.63-17.32h3.67Z"/>
    <path class="k" d="M184.53,89.85c-1.63-.91-2.9-2.2-3.82-3.88-.92-1.68-1.38-3.62-1.38-5.83s.47-4.11,1.42-5.79c.95-1.68,2.24-2.96,3.88-3.86,1.64-.9,3.47-1.35,5.5-1.35s3.86.45,5.5,1.35c1.64.9,2.93,2.18,3.88,3.84.95,1.66,1.42,3.6,1.42,5.81s-.49,4.15-1.46,5.83c-.97,1.68-2.29,2.97-3.96,3.88-1.66.91-3.51,1.37-5.54,1.37s-3.82-.45-5.44-1.37ZM193.56,87.2c1.12-.6,2.02-1.49,2.71-2.69.69-1.2,1.03-2.65,1.03-4.37s-.34-3.17-1.01-4.37-1.56-2.09-2.65-2.67-2.28-.88-3.55-.88-2.49.29-3.57.88-1.94,1.48-2.59,2.67c-.65,1.2-.98,2.65-.98,4.37s.32,3.21.96,4.41c.64,1.2,1.49,2.09,2.55,2.67,1.07.58,2.24.88,3.51.88s2.47-.3,3.59-.9Z"/>
    <path class="k" d="M209.94,72.42v12.6c0,1.04.22,1.77.66,2.2.44.43,1.21.64,2.3.64h2.61v3h-3.2c-1.98,0-3.46-.45-4.45-1.37-.99-.91-1.48-2.4-1.48-4.48v-12.6h-2.77v-2.93h2.77v-5.38h3.55v5.38h5.58v2.93h-5.58Z"/>
    <path class="k" d="M234.78,70.14c1.3.69,2.32,1.72,3.06,3.1.74,1.38,1.11,3.06,1.11,5.03v12.6h-3.51v-12.09c0-2.13-.53-3.76-1.6-4.89-1.07-1.13-2.52-1.7-4.37-1.7s-3.36.58-4.46,1.76c-1.11,1.17-1.66,2.87-1.66,5.11v11.82h-3.55v-28.86h3.55v10.53c.7-1.09,1.67-1.94,2.91-2.54,1.24-.6,2.62-.9,4.15-.9,1.61,0,3.07.35,4.37,1.03Z"/>
    <path class="k" d="M264.15,81.5h-17.08c.13,2.11.85,3.75,2.17,4.93,1.31,1.18,2.91,1.77,4.78,1.77,1.53,0,2.81-.36,3.84-1.07,1.03-.71,1.75-1.67,2.16-2.87h3.82c-.57,2.05-1.72,3.72-3.43,5.01-1.72,1.29-3.85,1.93-6.4,1.93-2.03,0-3.84-.45-5.44-1.37-1.6-.91-2.85-2.2-3.76-3.88-.91-1.68-1.37-3.62-1.37-5.83s.44-4.15,1.33-5.81c.88-1.66,2.13-2.94,3.72-3.84s3.44-1.35,5.52-1.35,3.82.44,5.38,1.33c1.56.88,2.76,2.1,3.61,3.65.84,1.55,1.27,3.3,1.27,5.25,0,.68-.04,1.39-.12,2.15ZM259.7,75.13c-.6-.98-1.41-1.72-2.44-2.22-1.03-.51-2.17-.76-3.41-.76-1.79,0-3.32.57-4.58,1.72-1.26,1.14-1.98,2.73-2.17,4.76h13.49c0-1.35-.3-2.52-.9-3.49Z"/>
    <path class="k" d="M275.16,70.12c1.16-.68,2.57-1.01,4.23-1.01v3.67h-.94c-3.98,0-5.97,2.16-5.97,6.47v11.62h-3.55v-21.37h3.55v3.47c.62-1.22,1.51-2.17,2.67-2.85Z"/>
    <path class="k" d="M300.12,70.12c1.16-.68,2.57-1.01,4.23-1.01v3.67h-.94c-3.98,0-5.97,2.16-5.97,6.47v11.62h-3.55v-21.37h3.55v3.47c.62-1.22,1.51-2.17,2.67-2.85Z"/>
    <path class="k" d="M312.33,89.85c-1.63-.91-2.9-2.2-3.82-3.88-.92-1.68-1.38-3.62-1.38-5.83s.47-4.11,1.42-5.79c.95-1.68,2.24-2.96,3.88-3.86,1.64-.9,3.47-1.35,5.5-1.35s3.86.45,5.5,1.35c1.64.9,2.93,2.18,3.88,3.84.95,1.66,1.42,3.6,1.42,5.81s-.49,4.15-1.46,5.83c-.97,1.68-2.29,2.97-3.96,3.88-1.66.91-3.51,1.37-5.54,1.37s-3.82-.45-5.44-1.37ZM321.36,87.2c1.12-.6,2.02-1.49,2.71-2.69.69-1.2,1.03-2.65,1.03-4.37s-.34-3.17-1.01-4.37-1.56-2.09-2.65-2.67-2.28-.88-3.55-.88-2.49.29-3.57.88-1.94,1.48-2.59,2.67c-.65,1.2-.98,2.65-.98,4.37s.32,3.21.96,4.41c.64,1.2,1.49,2.09,2.55,2.67,1.07.58,2.24.88,3.51.88s2.47-.3,3.59-.9Z"/>
    <path class="k" d="M361.88,69.49l-6.67,21.37h-3.67l-5.15-16.96-5.15,16.96h-3.67l-6.71-21.37h3.63l4.91,17.94,5.3-17.94h3.63l5.19,17.98,4.84-17.98h3.51Z"/>
    <path class="k" d="M377.91,64.15c1.66-1.35,3.82-2.03,6.47-2.03,1.77,0,3.3.32,4.58.96,1.29.64,2.26,1.5,2.93,2.59.66,1.09.99,2.33.99,3.71,0,1.61-.46,3-1.38,4.17s-2.12,1.92-3.61,2.26v.2c1.69.42,3.03,1.23,4.02,2.46.99,1.22,1.48,2.82,1.48,4.8,0,1.48-.34,2.81-1.01,4-.68,1.18-1.69,2.11-3.04,2.79s-2.98,1.01-4.88,1.01c-2.76,0-5.02-.72-6.79-2.16-1.77-1.44-2.76-3.49-2.96-6.14h3.43c.18,1.56.82,2.83,1.91,3.82,1.09.99,2.55,1.48,4.37,1.48s3.2-.47,4.15-1.42c.95-.95,1.42-2.18,1.42-3.69,0-1.95-.65-3.35-1.95-4.21-1.3-.86-3.26-1.29-5.89-1.29h-.9v-2.96h.94c2.39-.03,4.2-.42,5.42-1.19,1.22-.77,1.83-1.96,1.83-3.57,0-1.38-.45-2.48-1.35-3.31-.9-.83-2.18-1.25-3.84-1.25s-2.91.42-3.9,1.25c-.99.83-1.57,1.95-1.76,3.35h-3.47c.18-2.39,1.1-4.26,2.77-5.62Z"/>
    <path class="k" d="M413.51,72.42v12.6c0,1.04.22,1.77.66,2.2.44.43,1.21.64,2.3.64h2.61v3h-3.2c-1.98,0-3.46-.45-4.45-1.37-.99-.91-1.48-2.4-1.48-4.48v-12.6h-2.77v-2.93h2.77v-5.38h3.55v5.38h5.58v2.93h-5.58Z"/>
    <path class="k" d="M423.5,65.32c-.47-.47-.7-1.04-.7-1.72s.23-1.25.7-1.72c.47-.47,1.04-.7,1.72-.7s1.2.23,1.66.7c.46.47.68,1.04.68,1.72s-.23,1.25-.68,1.72c-.46.47-1.01.7-1.66.7s-1.25-.23-1.72-.7ZM426.93,69.49v21.37h-3.55v-21.37h3.55Z"/>
    <path class="k" d="M463.12,70.14c1.3.69,2.33,1.72,3.08,3.1.75,1.38,1.13,3.06,1.13,5.03v12.6h-3.51v-12.09c0-2.13-.53-3.76-1.58-4.89-1.05-1.13-2.48-1.7-4.27-1.7s-3.32.59-4.41,1.77c-1.09,1.18-1.64,2.89-1.64,5.13v11.78h-3.51v-12.09c0-2.13-.53-3.76-1.58-4.89-1.05-1.13-2.48-1.7-4.27-1.7s-3.31.59-4.41,1.77c-1.09,1.18-1.64,2.89-1.64,5.13v11.78h-3.55v-21.37h3.55v3.08c.7-1.12,1.64-1.98,2.83-2.57,1.18-.6,2.49-.9,3.92-.9,1.79,0,3.38.4,4.76,1.21,1.38.81,2.41,1.99,3.08,3.55.6-1.51,1.59-2.68,2.96-3.51,1.38-.83,2.91-1.25,4.6-1.25s3.15.35,4.45,1.03Z"/>
    <path class="k" d="M492.53,81.5h-17.08c.13,2.11.85,3.75,2.17,4.93,1.31,1.18,2.91,1.77,4.78,1.77,1.53,0,2.81-.36,3.84-1.07,1.03-.71,1.75-1.67,2.16-2.87h3.82c-.57,2.05-1.72,3.72-3.43,5.01-1.72,1.29-3.85,1.93-6.4,1.93-2.03,0-3.84-.45-5.44-1.37-1.6-.91-2.85-2.2-3.76-3.88-.91-1.68-1.37-3.62-1.37-5.83s.44-4.15,1.33-5.81c.88-1.66,2.13-2.94,3.72-3.84s3.44-1.35,5.52-1.35,3.82.44,5.38,1.33c1.56.88,2.76,2.1,3.61,3.65.84,1.55,1.27,3.3,1.27,5.25,0,.68-.04,1.39-.12,2.15ZM488.08,75.13c-.6-.98-1.41-1.72-2.44-2.22-1.03-.51-2.17-.76-3.41-.76-1.79,0-3.32.57-4.58,1.72-1.26,1.14-1.98,2.73-2.17,4.76h13.49c0-1.35-.3-2.52-.9-3.49Z"/>
    <path class="k" d="M500.48,90.38c-1.3-.56-2.33-1.34-3.08-2.34-.75-1-1.17-2.15-1.25-3.45h3.67c.1,1.07.6,1.94,1.5,2.61.9.68,2.07,1.01,3.53,1.01,1.35,0,2.42-.3,3.2-.9.78-.6,1.17-1.35,1.17-2.26s-.42-1.63-1.25-2.09c-.83-.45-2.12-.9-3.86-1.35-1.59-.42-2.88-.84-3.88-1.27-1-.43-1.86-1.07-2.57-1.91-.72-.84-1.07-1.96-1.07-3.33,0-1.09.33-2.09.98-3,.65-.91,1.57-1.63,2.77-2.16,1.2-.53,2.56-.8,4.09-.8,2.37,0,4.28.6,5.73,1.79,1.46,1.2,2.24,2.83,2.34,4.91h-3.55c-.08-1.12-.53-2.01-1.35-2.69-.82-.68-1.92-1.01-3.29-1.01-1.27,0-2.29.27-3.04.82-.75.55-1.13,1.26-1.13,2.15,0,.7.23,1.28.68,1.74.46.46,1.03.82,1.72,1.09.69.27,1.64.58,2.87.92,1.53.42,2.78.83,3.74,1.23.96.4,1.79,1.01,2.48,1.81.69.81,1.05,1.86,1.07,3.16,0,1.17-.33,2.22-.98,3.16-.65.94-1.57,1.67-2.75,2.2-1.18.53-2.54.8-4.08.8-1.64,0-3.11-.28-4.41-.84Z"/>
  </g>
  <g class="g">
    <path class="i" d="M524.34,445.14h-56.46c-5.25,0-10.11,2.8-12.73,7.35l-28.23,48.89c-2.63,4.55-2.63,10.15,0,14.7l28.23,48.89c2.63,4.55,7.48,7.35,12.73,7.35h56.46c5.25,0,10.11-2.8,12.73-7.35l28.23-48.89c2.63-4.55,2.63-10.15,0-14.7l-28.23-48.89c-2.63-4.55-7.48-7.35-12.73-7.35Z"/>
    <path class="j" d="M521.51,451.5h-50.81c-4.73,0-9.09,2.52-11.46,6.62l-25.41,44c-2.36,4.09-2.36,9.14,0,13.23l25.41,44c2.36,4.09,6.73,6.62,11.46,6.62h50.81c4.73,0,9.09-2.52,11.46-6.62l25.41-44c2.36-4.09,2.36-9.14,0-13.23l-25.41-44c-2.36-4.09-6.73-6.62-11.46-6.62h0Z"/>
    <g>
      <path class="l" d="M483.03,523.96c-7.92,5.83-5.14,22.08-5.14,22.08"/>
      <path class="l" d="M477.96,511.21c8.54,6.36,6.74,16.78,6.46,34.83"/>
      <path class="l" d="M482.06,516.6c-14.17,3.61-10.97,29.45-10.97,29.45"/>
      <path class="l" d="M477.33,510.49c-17.5,10.97-12.5,35.56-12.5,35.56"/>
      <line class="l" x1="462.49" y1="467.11" x2="462.19" y2="514.24"/>
      <line class="l" x1="509.92" y1="466.61" x2="481.22" y2="498.82"/>
      <path class="l" d="M518.39,467.02s-34.67,40.27-41.61,44.02"/>
      <line class="l" x1="528.81" y1="467.3" x2="488.86" y2="511.32"/>
      <line class="l" x1="535.25" y1="546.6" x2="500.88" y2="502.17"/>
      <path class="l" d="M469.24,467.11s-.45,27.13-.14,34.77c.31,7.64-4.27,9.72-4.27,9.72"/>
      <path class="l" d="M475.7,467.11s.3,17.55.2,28.24c-.1,10.69-5.51,10.83-5.51,10.83"/>
      <path class="l" d="M482.5,467.11s.53,20.32-.72,28.94c-1.47,10.11-16.81,12.64-20.7,21.95-3.89,9.31-2.92,28.06-2.92,28.06"/>
      <line class="l" x1="526.92" y1="546.6" x2="495.6" y2="507.86"/>
      <line class="l" x1="517.61" y1="546.6" x2="489.56" y2="511.88"/>
    </g>
  </g>
</svg>