<?xml version="1.0" encoding="UTF-8"?>
<svg id="b" data-name="increase 5" xmlns="http://www.w3.org/2000/svg" viewBox="0 0 616.77 601.35">
  <defs>
    <style>
      .h {
        opacity: .85;
      }

      .i {
        fill: #f2f2f2;
      }

      .j, .k {
        fill: #52682d;
      }

      .l {
        fill: #fff;
      }

      .k {
        stroke-width: 2.98px;
      }

      .k, .m {
        stroke: #fff;
      }

      .m {
        fill: none;
        stroke-linecap: round;
        stroke-miterlimit: 10;
        stroke-width: 3.05px;
      }

      .n {
        fill: #faaf40;
      }
    </style>
  </defs>
  <rect class="j" width="616.77" height="601.35"/>
  <g>
    <path class="i" d="M419.66,121.58c5.95,16.5,6.6,31.38,1.46,33.29-5.15,1.88-14.15-9.95-20.1-26.45-5.95-16.49-6.6-31.38-1.45-33.27,5.14-1.9,14.14,9.95,20.09,26.43Z"/>
    <path class="i" d="M424.37,121.58c-5.95,16.5-6.6,31.38-1.46,33.29,5.15,1.88,14.14-9.95,20.09-26.45,5.94-16.49,6.6-31.38,1.45-33.27-5.14-1.9-14.14,9.95-20.09,26.43Z"/>
  </g>
  <g>
    <path class="i" d="M367.09,121.58c5.95,16.5,6.6,31.38,1.45,33.29-5.14,1.88-14.14-9.95-20.09-26.45-5.95-16.49-6.6-31.38-1.45-33.27,5.14-1.9,14.14,9.95,20.09,26.43Z"/>
    <path class="i" d="M371.8,121.58c-5.95,16.5-6.6,31.38-1.46,33.29,5.15,1.88,14.14-9.95,20.09-26.45,5.95-16.49,6.61-31.38,1.46-33.27-5.15-1.9-14.14,9.95-20.09,26.43Z"/>
  </g>
  <g>
    <path class="i" d="M314.52,121.58c5.95,16.5,6.6,31.38,1.45,33.29-5.14,1.88-14.14-9.95-20.09-26.45-5.95-16.49-6.6-31.38-1.46-33.27,5.15-1.9,14.14,9.95,20.09,26.43Z"/>
    <path class="i" d="M319.23,121.58c-5.95,16.5-6.61,31.38-1.46,33.29,5.15,1.88,14.14-9.95,20.09-26.45,5.95-16.49,6.61-31.38,1.46-33.27-5.15-1.9-14.14,9.95-20.09,26.43Z"/>
  </g>
  <g>
    <path class="i" d="M261.94,121.58c5.94,16.5,6.6,31.38,1.45,33.29-5.14,1.88-14.14-9.95-20.09-26.45-5.95-16.49-6.6-31.38-1.46-33.27,5.15-1.9,14.14,9.95,20.09,26.43Z"/>
    <path class="i" d="M266.66,121.58c-5.95,16.5-6.61,31.38-1.46,33.29,5.14,1.88,14.14-9.95,20.09-26.45,5.95-16.49,6.6-31.38,1.46-33.27-5.15-1.9-14.14,9.95-20.09,26.43Z"/>
  </g>
  <g>
    <path class="i" d="M209.37,121.58c5.95,16.5,6.61,31.38,1.46,33.29-5.14,1.88-14.14-9.95-20.09-26.45-5.95-16.49-6.6-31.38-1.46-33.27,5.15-1.9,14.14,9.95,20.09,26.43Z"/>
    <path class="i" d="M214.08,121.58c-5.94,16.5-6.6,31.38-1.45,33.29,5.14,1.88,14.14-9.95,20.09-26.45,5.95-16.49,6.6-31.38,1.46-33.27-5.15-1.9-14.15,9.95-20.1,26.43Z"/>
  </g>
  <g>
    <path class="i" d="M472.23,166.66c5.95,16.49,6.6,31.39,1.46,33.29-5.15,1.88-14.15-9.95-20.1-26.45-5.94-16.48-6.6-31.38-1.45-33.27,5.15-1.89,14.14,9.95,20.09,26.43Z"/>
    <path class="i" d="M476.94,166.66c-5.95,16.49-6.6,31.39-1.46,33.29,5.15,1.88,14.15-9.95,20.1-26.45,5.95-16.48,6.6-31.38,1.45-33.27-5.14-1.89-14.14,9.95-20.09,26.43Z"/>
  </g>
  <g>
    <path class="i" d="M419.66,166.66c5.95,16.49,6.6,31.39,1.46,33.29-5.15,1.88-14.15-9.95-20.1-26.45-5.95-16.48-6.6-31.38-1.45-33.27,5.14-1.89,14.14,9.95,20.09,26.43Z"/>
    <path class="i" d="M424.37,166.66c-5.95,16.49-6.6,31.39-1.46,33.29,5.15,1.88,14.14-9.95,20.09-26.45,5.94-16.48,6.6-31.38,1.45-33.27-5.14-1.89-14.14,9.95-20.09,26.43Z"/>
  </g>
  <g>
    <path class="i" d="M367.09,166.66c5.95,16.49,6.6,31.39,1.45,33.29-5.14,1.88-14.14-9.95-20.09-26.45-5.95-16.48-6.6-31.38-1.45-33.27,5.14-1.89,14.14,9.95,20.09,26.43Z"/>
    <path class="i" d="M371.8,166.66c-5.95,16.49-6.6,31.39-1.46,33.29,5.15,1.88,14.14-9.95,20.09-26.45,5.95-16.48,6.61-31.38,1.46-33.27-5.15-1.89-14.14,9.95-20.09,26.43Z"/>
  </g>
  <g>
    <path class="i" d="M314.52,166.66c5.95,16.49,6.6,31.39,1.45,33.29-5.14,1.88-14.14-9.95-20.09-26.45-5.95-16.48-6.6-31.38-1.46-33.27,5.15-1.89,14.14,9.95,20.09,26.43Z"/>
    <path class="i" d="M319.23,166.66c-5.95,16.49-6.61,31.39-1.46,33.29,5.15,1.88,14.14-9.95,20.09-26.45,5.95-16.48,6.61-31.38,1.46-33.27-5.15-1.89-14.14,9.95-20.09,26.43Z"/>
  </g>
  <g>
    <path class="i" d="M261.94,166.66c5.94,16.49,6.6,31.39,1.45,33.29-5.14,1.88-14.14-9.95-20.09-26.45-5.95-16.48-6.6-31.38-1.46-33.27,5.15-1.89,14.14,9.95,20.09,26.43Z"/>
    <path class="i" d="M266.66,166.66c-5.95,16.49-6.61,31.39-1.46,33.29,5.14,1.88,14.14-9.95,20.09-26.45,5.95-16.48,6.6-31.38,1.46-33.27-5.15-1.89-14.14,9.95-20.09,26.43Z"/>
  </g>
  <g>
    <path class="i" d="M524.8,211.74c5.95,16.48,6.61,31.38,1.46,33.27-5.15,1.89-14.14-9.95-20.09-26.43-5.95-16.49-6.61-31.39-1.46-33.28,5.15-1.89,14.15,9.95,20.09,26.44Z"/>
    <path class="i" d="M529.51,211.74c-5.95,16.48-6.6,31.38-1.45,33.27,5.14,1.89,14.14-9.95,20.09-26.43,5.95-16.49,6.6-31.39,1.45-33.28-5.14-1.89-14.14,9.95-20.09,26.44Z"/>
  </g>
  <g>
    <path class="i" d="M472.23,211.74c5.95,16.48,6.6,31.38,1.46,33.27-5.15,1.89-14.15-9.95-20.1-26.43-5.94-16.49-6.6-31.39-1.45-33.28,5.15-1.89,14.14,9.95,20.09,26.44Z"/>
    <path class="i" d="M476.94,211.74c-5.95,16.48-6.6,31.38-1.46,33.27,5.15,1.89,14.15-9.95,20.1-26.43,5.95-16.49,6.6-31.39,1.45-33.28-5.14-1.89-14.14,9.95-20.09,26.44Z"/>
  </g>
  <g>
    <path class="i" d="M419.66,211.74c5.95,16.48,6.6,31.38,1.46,33.27-5.15,1.89-14.15-9.95-20.1-26.43-5.95-16.49-6.6-31.39-1.45-33.28,5.14-1.89,14.14,9.95,20.09,26.44Z"/>
    <path class="i" d="M424.37,211.74c-5.95,16.48-6.6,31.38-1.46,33.27,5.15,1.89,14.14-9.95,20.09-26.43,5.94-16.49,6.6-31.39,1.45-33.28-5.14-1.89-14.14,9.95-20.09,26.44Z"/>
  </g>
  <g>
    <path class="i" d="M367.09,211.74c5.95,16.48,6.6,31.38,1.45,33.27-5.14,1.89-14.14-9.95-20.09-26.43-5.95-16.49-6.6-31.39-1.45-33.28,5.14-1.89,14.14,9.95,20.09,26.44Z"/>
    <path class="i" d="M371.8,211.74c-5.95,16.48-6.6,31.38-1.46,33.27,5.15,1.89,14.14-9.95,20.09-26.43,5.95-16.49,6.61-31.39,1.46-33.28-5.15-1.89-14.14,9.95-20.09,26.44Z"/>
  </g>
  <g>
    <path class="i" d="M314.52,211.74c5.95,16.48,6.6,31.38,1.45,33.27-5.14,1.89-14.14-9.95-20.09-26.43-5.95-16.49-6.6-31.39-1.46-33.28,5.15-1.89,14.14,9.95,20.09,26.44Z"/>
    <path class="i" d="M319.23,211.74c-5.95,16.48-6.61,31.38-1.46,33.27,5.15,1.89,14.14-9.95,20.09-26.43,5.95-16.49,6.61-31.39,1.46-33.28-5.15-1.89-14.14,9.95-20.09,26.44Z"/>
  </g>
  <g>
    <path class="n" d="M472.23,256.82c5.95,16.49,6.6,31.38,1.46,33.27-5.15,1.9-14.15-9.95-20.1-26.43-5.94-16.5-6.6-31.38-1.45-33.28,5.15-1.89,14.14,9.95,20.09,26.44Z"/>
    <path class="n" d="M476.94,256.82c-5.95,16.49-6.6,31.38-1.46,33.27,5.15,1.9,14.15-9.95,20.1-26.43,5.95-16.5,6.6-31.38,1.45-33.28-5.14-1.89-14.14,9.95-20.09,26.44Z"/>
  </g>
  <g>
    <path class="n" d="M419.66,256.82c5.95,16.49,6.6,31.38,1.46,33.27-5.15,1.9-14.15-9.95-20.1-26.43-5.95-16.5-6.6-31.38-1.45-33.28,5.14-1.89,14.14,9.95,20.09,26.44Z"/>
    <path class="n" d="M424.37,256.82c-5.95,16.49-6.6,31.38-1.46,33.27,5.15,1.9,14.14-9.95,20.09-26.43,5.94-16.5,6.6-31.38,1.45-33.28-5.14-1.89-14.14,9.95-20.09,26.44Z"/>
  </g>
  <g>
    <path class="n" d="M367.09,256.82c5.95,16.49,6.6,31.38,1.45,33.27-5.14,1.9-14.14-9.95-20.09-26.43-5.95-16.5-6.6-31.38-1.45-33.28,5.14-1.89,14.14,9.95,20.09,26.44Z"/>
    <path class="n" d="M371.8,256.82c-5.95,16.49-6.6,31.38-1.46,33.27,5.15,1.9,14.14-9.95,20.09-26.43,5.95-16.5,6.61-31.38,1.46-33.28-5.15-1.89-14.14,9.95-20.09,26.44Z"/>
  </g>
  <g>
    <path class="i" d="M524.8,121.58c5.95,16.5,6.61,31.38,1.46,33.29-5.15,1.88-14.14-9.95-20.09-26.45-5.95-16.49-6.61-31.38-1.46-33.27,5.15-1.9,14.15,9.95,20.09,26.43Z"/>
    <path class="i" d="M529.51,121.58c-5.95,16.5-6.6,31.38-1.45,33.29,5.14,1.88,14.14-9.95,20.09-26.45,5.95-16.49,6.6-31.38,1.45-33.27-5.14-1.9-14.14,9.95-20.09,26.43Z"/>
  </g>
  <g>
    <path class="i" d="M104.23,121.58c5.95,16.5,6.6,31.38,1.46,33.29-5.15,1.88-14.15-9.95-20.1-26.45-5.94-16.49-6.6-31.38-1.45-33.27,5.14-1.9,14.14,9.95,20.09,26.43Z"/>
    <path class="i" d="M108.94,121.58c-5.95,16.5-6.6,31.38-1.45,33.29,5.14,1.88,14.14-9.95,20.09-26.45,5.95-16.49,6.6-31.38,1.45-33.27-5.14-1.9-14.14,9.95-20.09,26.43Z"/>
  </g>
  <g>
    <path class="i" d="M156.8,166.66c5.95,16.49,6.61,31.39,1.46,33.29-5.15,1.88-14.14-9.95-20.09-26.45-5.95-16.48-6.61-31.38-1.46-33.27,5.15-1.89,14.14,9.95,20.09,26.43Z"/>
    <path class="i" d="M161.51,166.66c-5.95,16.49-6.6,31.39-1.45,33.29,5.14,1.88,14.14-9.95,20.09-26.45,5.95-16.48,6.6-31.38,1.46-33.27-5.15-1.89-14.15,9.95-20.1,26.43Z"/>
  </g>
  <g>
    <path class="i" d="M104.23,166.66c5.95,16.49,6.6,31.39,1.46,33.29-5.15,1.88-14.15-9.95-20.1-26.45-5.94-16.48-6.6-31.38-1.45-33.27,5.14-1.89,14.14,9.95,20.09,26.43Z"/>
    <path class="i" d="M108.94,166.66c-5.95,16.49-6.6,31.39-1.45,33.29,5.14,1.88,14.14-9.95,20.09-26.45,5.95-16.48,6.6-31.38,1.45-33.27-5.14-1.89-14.14,9.95-20.09,26.43Z"/>
  </g>
  <g>
    <path class="i" d="M209.37,211.74c5.95,16.48,6.61,31.38,1.46,33.27-5.14,1.89-14.14-9.95-20.09-26.43-5.95-16.49-6.6-31.39-1.46-33.28,5.15-1.89,14.14,9.95,20.09,26.44Z"/>
    <path class="i" d="M214.08,211.74c-5.94,16.48-6.6,31.38-1.45,33.27,5.14,1.89,14.14-9.95,20.09-26.43,5.95-16.49,6.6-31.39,1.46-33.28-5.15-1.89-14.15,9.95-20.1,26.44Z"/>
  </g>
  <g>
    <path class="i" d="M156.8,211.74c5.95,16.48,6.61,31.38,1.46,33.27-5.15,1.89-14.14-9.95-20.09-26.43-5.95-16.49-6.61-31.39-1.46-33.28,5.15-1.89,14.14,9.95,20.09,26.44Z"/>
    <path class="i" d="M161.51,211.74c-5.95,16.48-6.6,31.38-1.45,33.27,5.14,1.89,14.14-9.95,20.09-26.43,5.95-16.49,6.6-31.39,1.46-33.28-5.15-1.89-14.15,9.95-20.1,26.44Z"/>
  </g>
  <g>
    <path class="i" d="M104.23,211.74c5.95,16.48,6.6,31.38,1.46,33.27-5.15,1.89-14.15-9.95-20.1-26.43-5.94-16.49-6.6-31.39-1.45-33.28,5.14-1.89,14.14,9.95,20.09,26.44Z"/>
    <path class="i" d="M108.94,211.74c-5.95,16.48-6.6,31.38-1.45,33.27,5.14,1.89,14.14-9.95,20.09-26.43,5.95-16.49,6.6-31.39,1.45-33.28-5.14-1.89-14.14,9.95-20.09,26.44Z"/>
  </g>
  <g>
    <path class="i" d="M156.8,256.82c5.95,16.49,6.61,31.38,1.46,33.27-5.15,1.9-14.14-9.95-20.09-26.43-5.95-16.5-6.61-31.38-1.46-33.28,5.15-1.89,14.14,9.95,20.09,26.44Z"/>
    <path class="i" d="M161.51,256.82c-5.95,16.49-6.6,31.38-1.45,33.27,5.14,1.9,14.14-9.95,20.09-26.43,5.95-16.5,6.6-31.38,1.46-33.28-5.15-1.89-14.15,9.95-20.1,26.44Z"/>
  </g>
  <g>
    <path class="i" d="M104.23,256.82c5.95,16.49,6.6,31.38,1.46,33.27-5.15,1.9-14.15-9.95-20.1-26.43-5.94-16.5-6.6-31.38-1.45-33.28,5.14-1.89,14.14,9.95,20.09,26.44Z"/>
    <path class="i" d="M108.94,256.82c-5.95,16.49-6.6,31.38-1.45,33.27,5.14,1.9,14.14-9.95,20.09-26.43,5.95-16.5,6.6-31.38,1.45-33.28-5.14-1.89-14.14,9.95-20.09,26.44Z"/>
  </g>
  <g>
    <path class="i" d="M104.23,301.89c5.95,16.5,6.6,31.39,1.46,33.27-5.15,1.9-14.15-9.94-20.1-26.43-5.94-16.5-6.6-31.39-1.45-33.27,5.14-1.9,14.14,9.94,20.09,26.42Z"/>
    <path class="i" d="M108.94,301.89c-5.95,16.5-6.6,31.39-1.45,33.27,5.14,1.9,14.14-9.94,20.09-26.43,5.95-16.5,6.6-31.39,1.45-33.27-5.14-1.9-14.14,9.94-20.09,26.42Z"/>
  </g>
  <g>
    <path class="i" d="M314.52,482.2c5.95,16.49,6.6,31.38,1.45,33.27-5.14,1.89-14.14-9.94-20.09-26.43-5.95-16.5-6.6-31.39-1.46-33.28,5.15-1.89,14.14,9.95,20.09,26.44Z"/>
    <path class="i" d="M319.23,482.2c-5.95,16.49-6.61,31.38-1.46,33.27,5.15,1.89,14.14-9.94,20.09-26.43,5.95-16.5,6.61-31.39,1.46-33.28-5.15-1.89-14.14,9.95-20.09,26.44Z"/>
  </g>
  <g>
    <path class="i" d="M261.94,482.2c5.94,16.49,6.6,31.38,1.45,33.27-5.14,1.89-14.14-9.94-20.09-26.43-5.95-16.5-6.6-31.39-1.46-33.28,5.15-1.89,14.14,9.95,20.09,26.44Z"/>
    <path class="i" d="M266.66,482.2c-5.95,16.49-6.61,31.38-1.46,33.27,5.14,1.89,14.14-9.94,20.09-26.43,5.95-16.5,6.6-31.39,1.46-33.28-5.15-1.89-14.14,9.95-20.09,26.44Z"/>
  </g>
  <g>
    <path class="i" d="M261.94,301.89c5.94,16.5,6.6,31.39,1.45,33.27-5.14,1.9-14.14-9.94-20.09-26.43-5.95-16.5-6.6-31.39-1.46-33.27,5.15-1.9,14.14,9.94,20.09,26.42Z"/>
    <path class="i" d="M266.66,301.89c-5.95,16.5-6.61,31.39-1.46,33.27,5.14,1.9,14.14-9.94,20.09-26.43,5.95-16.5,6.6-31.39,1.46-33.27-5.15-1.9-14.14,9.94-20.09,26.42Z"/>
  </g>
  <g>
    <path class="i" d="M314.52,346.96c5.95,16.5,6.6,31.39,1.45,33.29-5.14,1.89-14.14-9.95-20.09-26.45-5.95-16.48-6.6-31.38-1.46-33.27,5.15-1.9,14.14,9.95,20.09,26.43Z"/>
    <path class="i" d="M319.23,346.96c-5.95,16.5-6.61,31.39-1.46,33.29,5.15,1.89,14.14-9.95,20.09-26.45,5.95-16.48,6.61-31.38,1.46-33.27-5.15-1.9-14.14,9.95-20.09,26.43Z"/>
  </g>
  <g>
    <path class="i" d="M261.94,346.96c5.94,16.5,6.6,31.39,1.45,33.29-5.14,1.89-14.14-9.95-20.09-26.45-5.95-16.48-6.6-31.38-1.46-33.27,5.15-1.9,14.14,9.95,20.09,26.43Z"/>
    <path class="i" d="M266.66,346.96c-5.95,16.5-6.61,31.39-1.46,33.29,5.14,1.89,14.14-9.95,20.09-26.45,5.95-16.48,6.6-31.38,1.46-33.27-5.15-1.9-14.14,9.95-20.09,26.43Z"/>
  </g>
  <g>
    <path class="i" d="M209.37,346.96c5.95,16.5,6.61,31.39,1.46,33.29-5.14,1.89-14.14-9.95-20.09-26.45-5.95-16.48-6.6-31.38-1.46-33.27,5.15-1.9,14.14,9.95,20.09,26.43Z"/>
    <path class="i" d="M214.08,346.96c-5.94,16.5-6.6,31.39-1.45,33.29,5.14,1.89,14.14-9.95,20.09-26.45,5.95-16.48,6.6-31.38,1.46-33.27-5.15-1.9-14.15,9.95-20.1,26.43Z"/>
  </g>
  <g>
    <path class="i" d="M314.52,392.05c5.95,16.49,6.6,31.38,1.45,33.27-5.14,1.89-14.14-9.95-20.09-26.43-5.95-16.49-6.6-31.39-1.46-33.28,5.15-1.89,14.14,9.95,20.09,26.44Z"/>
    <path class="i" d="M319.23,392.05c-5.95,16.49-6.61,31.38-1.46,33.27,5.15,1.89,14.14-9.95,20.09-26.43,5.95-16.49,6.61-31.39,1.46-33.28-5.15-1.89-14.14,9.95-20.09,26.44Z"/>
  </g>
  <g>
    <path class="i" d="M261.94,392.05c5.94,16.49,6.6,31.38,1.45,33.27-5.14,1.89-14.14-9.95-20.09-26.43-5.95-16.49-6.6-31.39-1.46-33.28,5.15-1.89,14.14,9.95,20.09,26.44Z"/>
    <path class="i" d="M266.66,392.05c-5.95,16.49-6.61,31.38-1.46,33.27,5.14,1.89,14.14-9.95,20.09-26.43,5.95-16.49,6.6-31.39,1.46-33.28-5.15-1.89-14.14,9.95-20.09,26.44Z"/>
  </g>
  <g>
    <path class="i" d="M209.37,392.05c5.95,16.49,6.61,31.38,1.46,33.27-5.14,1.89-14.14-9.95-20.09-26.43-5.95-16.49-6.6-31.39-1.46-33.28,5.15-1.89,14.14,9.95,20.09,26.44Z"/>
    <path class="i" d="M214.08,392.05c-5.94,16.49-6.6,31.38-1.45,33.27,5.14,1.89,14.14-9.95,20.09-26.43,5.95-16.49,6.6-31.39,1.46-33.28-5.15-1.89-14.15,9.95-20.1,26.44Z"/>
  </g>
  <g>
    <path class="i" d="M156.8,392.05c5.95,16.49,6.61,31.38,1.46,33.27-5.15,1.89-14.14-9.95-20.09-26.43-5.95-16.49-6.61-31.39-1.46-33.28,5.15-1.89,14.14,9.95,20.09,26.44Z"/>
    <path class="i" d="M161.51,392.05c-5.95,16.49-6.6,31.38-1.45,33.27,5.14,1.89,14.14-9.95,20.09-26.43,5.95-16.49,6.6-31.39,1.46-33.28-5.15-1.89-14.15,9.95-20.1,26.44Z"/>
  </g>
  <g>
    <path class="i" d="M314.52,437.12c5.95,16.49,6.6,31.39,1.45,33.27-5.14,1.89-14.14-9.95-20.09-26.43-5.95-16.49-6.6-31.39-1.46-33.28,5.15-1.88,14.14,9.95,20.09,26.44Z"/>
    <path class="i" d="M319.23,437.12c-5.95,16.49-6.61,31.39-1.46,33.27,5.15,1.89,14.14-9.95,20.09-26.43,5.95-16.49,6.61-31.39,1.46-33.28-5.15-1.88-14.14,9.95-20.09,26.44Z"/>
  </g>
  <g>
    <path class="i" d="M261.94,437.12c5.94,16.49,6.6,31.39,1.45,33.27-5.14,1.89-14.14-9.95-20.09-26.43-5.95-16.49-6.6-31.39-1.46-33.28,5.15-1.88,14.14,9.95,20.09,26.44Z"/>
    <path class="i" d="M266.66,437.12c-5.95,16.49-6.61,31.39-1.46,33.27,5.14,1.89,14.14-9.95,20.09-26.43,5.95-16.49,6.6-31.39,1.46-33.28-5.15-1.88-14.14,9.95-20.09,26.44Z"/>
  </g>
  <g>
    <path class="i" d="M209.37,437.12c5.95,16.49,6.61,31.39,1.46,33.27-5.14,1.89-14.14-9.95-20.09-26.43-5.95-16.49-6.6-31.39-1.46-33.28,5.15-1.88,14.14,9.95,20.09,26.44Z"/>
    <path class="i" d="M214.08,437.12c-5.94,16.49-6.6,31.39-1.45,33.27,5.14,1.89,14.14-9.95,20.09-26.43,5.95-16.49,6.6-31.39,1.46-33.28-5.15-1.88-14.15,9.95-20.1,26.44Z"/>
  </g>
  <g>
    <path class="i" d="M209.37,482.2c5.95,16.49,6.61,31.38,1.46,33.27-5.14,1.89-14.14-9.94-20.09-26.43-5.95-16.5-6.6-31.39-1.46-33.28,5.15-1.89,14.14,9.95,20.09,26.44Z"/>
    <path class="i" d="M214.08,482.2c-5.94,16.49-6.6,31.38-1.45,33.27,5.14,1.89,14.14-9.94,20.09-26.43,5.95-16.5,6.6-31.39,1.46-33.28-5.15-1.89-14.15,9.95-20.1,26.44Z"/>
  </g>
  <g>
    <path class="i" d="M472.23,121.58c5.95,16.5,6.6,31.38,1.46,33.29-5.15,1.88-14.15-9.95-20.1-26.45-5.94-16.49-6.6-31.38-1.45-33.27,5.15-1.9,14.14,9.95,20.09,26.43Z"/>
    <path class="i" d="M476.94,121.58c-5.95,16.5-6.6,31.38-1.46,33.29,5.15,1.88,14.15-9.95,20.1-26.45,5.95-16.49,6.6-31.38,1.45-33.27-5.14-1.9-14.14,9.95-20.09,26.43Z"/>
  </g>
  <g>
    <path class="i" d="M156.8,121.58c5.95,16.5,6.61,31.38,1.46,33.29-5.15,1.88-14.14-9.95-20.09-26.45-5.95-16.49-6.61-31.38-1.46-33.27,5.15-1.9,14.14,9.95,20.09,26.43Z"/>
    <path class="i" d="M161.51,121.58c-5.95,16.5-6.6,31.38-1.45,33.29,5.14,1.88,14.14-9.95,20.09-26.45,5.95-16.49,6.6-31.38,1.46-33.27-5.15-1.9-14.15,9.95-20.1,26.43Z"/>
  </g>
  <g>
    <path class="i" d="M524.8,166.66c5.95,16.49,6.61,31.39,1.46,33.29-5.15,1.88-14.14-9.95-20.09-26.45-5.95-16.48-6.61-31.38-1.46-33.27,5.15-1.89,14.15,9.95,20.09,26.43Z"/>
    <path class="i" d="M529.51,166.66c-5.95,16.49-6.6,31.39-1.45,33.29,5.14,1.88,14.14-9.95,20.09-26.45,5.95-16.48,6.6-31.38,1.45-33.27-5.14-1.89-14.14,9.95-20.09,26.43Z"/>
  </g>
  <g>
    <path class="i" d="M209.37,166.66c5.95,16.49,6.61,31.39,1.46,33.29-5.14,1.88-14.14-9.95-20.09-26.45-5.95-16.48-6.6-31.38-1.46-33.27,5.15-1.89,14.14,9.95,20.09,26.43Z"/>
    <path class="i" d="M214.08,166.66c-5.94,16.49-6.6,31.39-1.45,33.29,5.14,1.88,14.14-9.95,20.09-26.45,5.95-16.48,6.6-31.38,1.46-33.27-5.15-1.89-14.15,9.95-20.1,26.43Z"/>
  </g>
  <g>
    <path class="i" d="M261.94,211.74c5.94,16.48,6.6,31.38,1.45,33.27-5.14,1.89-14.14-9.95-20.09-26.43-5.95-16.49-6.6-31.39-1.46-33.28,5.15-1.89,14.14,9.95,20.09,26.44Z"/>
    <path class="i" d="M266.66,211.74c-5.95,16.48-6.61,31.38-1.46,33.27,5.14,1.89,14.14-9.95,20.09-26.43,5.95-16.49,6.6-31.39,1.46-33.28-5.15-1.89-14.14,9.95-20.09,26.44Z"/>
  </g>
  <g>
    <path class="n" d="M524.8,256.82c5.95,16.49,6.61,31.38,1.46,33.27-5.15,1.9-14.14-9.95-20.09-26.43-5.95-16.5-6.61-31.38-1.46-33.28,5.15-1.89,14.15,9.95,20.09,26.44Z"/>
    <path class="n" d="M529.51,256.82c-5.95,16.49-6.6,31.38-1.45,33.27,5.14,1.9,14.14-9.95,20.09-26.43,5.95-16.5,6.6-31.38,1.45-33.28-5.14-1.89-14.14,9.95-20.09,26.44Z"/>
  </g>
  <g>
    <path class="i" d="M314.52,256.82c5.95,16.49,6.6,31.38,1.45,33.27-5.14,1.9-14.14-9.95-20.09-26.43-5.95-16.5-6.6-31.38-1.46-33.28,5.15-1.89,14.14,9.95,20.09,26.44Z"/>
    <path class="i" d="M319.23,256.82c-5.95,16.49-6.61,31.38-1.46,33.27,5.15,1.9,14.14-9.95,20.09-26.43,5.95-16.5,6.61-31.38,1.46-33.28-5.15-1.89-14.14,9.95-20.09,26.44Z"/>
  </g>
  <g>
    <path class="i" d="M261.94,256.82c5.94,16.49,6.6,31.38,1.45,33.27-5.14,1.9-14.14-9.95-20.09-26.43-5.95-16.5-6.6-31.38-1.46-33.28,5.15-1.89,14.14,9.95,20.09,26.44Z"/>
    <path class="i" d="M266.66,256.82c-5.95,16.49-6.61,31.38-1.46,33.27,5.14,1.9,14.14-9.95,20.09-26.43,5.95-16.5,6.6-31.38,1.46-33.28-5.15-1.89-14.14,9.95-20.09,26.44Z"/>
  </g>
  <g>
    <path class="i" d="M209.37,256.82c5.95,16.49,6.61,31.38,1.46,33.27-5.14,1.9-14.14-9.95-20.09-26.43-5.95-16.5-6.6-31.38-1.46-33.28,5.15-1.89,14.14,9.95,20.09,26.44Z"/>
    <path class="i" d="M214.08,256.82c-5.94,16.49-6.6,31.38-1.45,33.27,5.14,1.9,14.14-9.95,20.09-26.43,5.95-16.5,6.6-31.38,1.46-33.28-5.15-1.89-14.15,9.95-20.1,26.44Z"/>
  </g>
  <g>
    <path class="i" d="M314.52,301.89c5.95,16.5,6.6,31.39,1.45,33.27-5.14,1.9-14.14-9.94-20.09-26.43-5.95-16.5-6.6-31.39-1.46-33.27,5.15-1.9,14.14,9.94,20.09,26.42Z"/>
    <path class="i" d="M319.23,301.89c-5.95,16.5-6.61,31.39-1.46,33.27,5.15,1.9,14.14-9.94,20.09-26.43,5.95-16.5,6.61-31.39,1.46-33.27-5.15-1.9-14.14,9.94-20.09,26.42Z"/>
  </g>
  <g>
    <path class="i" d="M209.37,301.89c5.95,16.5,6.61,31.39,1.46,33.27-5.14,1.9-14.14-9.94-20.09-26.43-5.95-16.5-6.6-31.39-1.46-33.27,5.15-1.9,14.14,9.94,20.09,26.42Z"/>
    <path class="i" d="M214.08,301.89c-5.94,16.5-6.6,31.39-1.45,33.27,5.14,1.9,14.14-9.94,20.09-26.43,5.95-16.5,6.6-31.39,1.46-33.27-5.15-1.9-14.15,9.94-20.1,26.42Z"/>
  </g>
  <g>
    <path class="i" d="M156.8,301.89c5.95,16.5,6.61,31.39,1.46,33.27-5.15,1.9-14.14-9.94-20.09-26.43-5.95-16.5-6.61-31.39-1.46-33.27,5.15-1.9,14.14,9.94,20.09,26.42Z"/>
    <path class="i" d="M161.51,301.89c-5.95,16.5-6.6,31.39-1.45,33.27,5.14,1.9,14.14-9.94,20.09-26.43,5.95-16.5,6.6-31.39,1.46-33.27-5.15-1.9-14.15,9.94-20.1,26.42Z"/>
  </g>
  <g>
    <path class="i" d="M156.8,346.96c5.95,16.5,6.61,31.39,1.46,33.29-5.15,1.89-14.14-9.95-20.09-26.45-5.95-16.48-6.61-31.38-1.46-33.27,5.15-1.9,14.14,9.95,20.09,26.43Z"/>
    <path class="i" d="M161.51,346.96c-5.95,16.5-6.6,31.39-1.45,33.29,5.14,1.89,14.14-9.95,20.09-26.45,5.95-16.48,6.6-31.38,1.46-33.27-5.15-1.9-14.15,9.95-20.1,26.43Z"/>
  </g>
  <g>
    <path class="i" d="M104.23,346.96c5.95,16.5,6.6,31.39,1.46,33.29-5.15,1.89-14.15-9.95-20.1-26.45-5.94-16.48-6.6-31.38-1.45-33.27,5.14-1.9,14.14,9.95,20.09,26.43Z"/>
    <path class="i" d="M108.94,346.96c-5.95,16.5-6.6,31.39-1.45,33.29,5.14,1.89,14.14-9.95,20.09-26.45,5.95-16.48,6.6-31.38,1.45-33.27-5.14-1.9-14.14,9.95-20.09,26.43Z"/>
  </g>
  <g>
    <path class="i" d="M104.23,392.05c5.95,16.49,6.6,31.38,1.46,33.27-5.15,1.89-14.15-9.95-20.1-26.43-5.94-16.49-6.6-31.39-1.45-33.28,5.14-1.89,14.14,9.95,20.09,26.44Z"/>
    <path class="i" d="M108.94,392.05c-5.95,16.49-6.6,31.38-1.45,33.27,5.14,1.89,14.14-9.95,20.09-26.43,5.95-16.49,6.6-31.39,1.45-33.28-5.14-1.89-14.14,9.95-20.09,26.44Z"/>
  </g>
  <g>
    <path class="i" d="M156.8,437.12c5.95,16.49,6.61,31.39,1.46,33.27-5.15,1.89-14.14-9.95-20.09-26.43-5.95-16.49-6.61-31.39-1.46-33.28,5.15-1.88,14.14,9.95,20.09,26.44Z"/>
    <path class="i" d="M161.51,437.12c-5.95,16.49-6.6,31.39-1.45,33.27,5.14,1.89,14.14-9.95,20.09-26.43,5.95-16.49,6.6-31.39,1.46-33.28-5.15-1.88-14.15,9.95-20.1,26.44Z"/>
  </g>
  <g>
    <path class="i" d="M156.8,482.2c5.95,16.49,6.61,31.38,1.46,33.27-5.15,1.89-14.14-9.94-20.09-26.43-5.95-16.5-6.61-31.39-1.46-33.28,5.15-1.89,14.14,9.95,20.09,26.44Z"/>
    <path class="i" d="M161.51,482.2c-5.95,16.49-6.6,31.38-1.45,33.27,5.14,1.89,14.14-9.94,20.09-26.43,5.95-16.5,6.6-31.39,1.46-33.28-5.15-1.89-14.15,9.95-20.1,26.44Z"/>
  </g>
  <g>
    <path class="i" d="M104.23,482.2c5.95,16.49,6.6,31.38,1.46,33.27-5.15,1.89-14.15-9.94-20.1-26.43-5.94-16.5-6.6-31.39-1.45-33.28,5.14-1.89,14.14,9.95,20.09,26.44Z"/>
    <path class="i" d="M108.94,482.2c-5.95,16.49-6.6,31.38-1.45,33.27,5.14,1.89,14.14-9.94,20.09-26.43,5.95-16.5,6.6-31.39,1.45-33.28-5.14-1.89-14.14,9.95-20.09,26.44Z"/>
  </g>
  <g>
    <path class="i" d="M104.23,437.12c5.95,16.49,6.6,31.39,1.46,33.27-5.15,1.89-14.15-9.95-20.1-26.43-5.94-16.49-6.6-31.39-1.45-33.28,5.14-1.88,14.14,9.95,20.09,26.44Z"/>
    <path class="i" d="M108.94,437.12c-5.95,16.49-6.6,31.39-1.45,33.27,5.14,1.89,14.14-9.95,20.09-26.43,5.95-16.49,6.6-31.39,1.45-33.28-5.14-1.88-14.14,9.95-20.09,26.44Z"/>
  </g>
  <g>
    <path class="l" d="M118.97,23.12v27.18h-3.55v-27.18h3.55Z"/>
    <path class="l" d="M146.39,50.31h-3.55l-14.27-21.65v21.65h-3.55v-27.22h3.55l14.27,21.61v-21.61h3.55v27.22Z"/>
    <path class="l" d="M152.9,29.54c1.2-2.12,2.83-3.78,4.89-4.97,2.07-1.2,4.36-1.79,6.88-1.79,2.96,0,5.55.72,7.76,2.15,2.21,1.43,3.82,3.46,4.84,6.08h-4.25c-.75-1.64-1.84-2.9-3.26-3.78-1.42-.88-3.11-1.33-5.09-1.33s-3.6.44-5.11,1.33c-1.51.88-2.69,2.14-3.55,3.76-.86,1.63-1.29,3.53-1.29,5.71s.43,4.05,1.29,5.67c.86,1.62,2.04,2.88,3.55,3.76,1.51.88,3.21,1.33,5.11,1.33s3.67-.44,5.09-1.31c1.42-.87,2.5-2.13,3.26-3.76h4.25c-1.01,2.6-2.63,4.61-4.84,6.03-2.21,1.42-4.8,2.13-7.76,2.13-2.52,0-4.82-.59-6.88-1.77-2.07-1.18-3.7-2.83-4.89-4.93s-1.79-4.48-1.79-7.14.6-5.04,1.79-7.16Z"/>
    <path class="l" d="M196.85,50.31l-6.47-11.12h-4.29v11.12h-3.55v-27.18h8.78c2.05,0,3.79.35,5.21,1.05,1.42.7,2.48,1.65,3.18,2.85.7,1.2,1.05,2.56,1.05,4.1,0,1.87-.54,3.52-1.62,4.95-1.08,1.43-2.7,2.38-4.86,2.85l6.83,11.39h-4.25ZM186.09,36.35h5.23c1.92,0,3.37-.47,4.33-1.42.96-.95,1.44-2.22,1.44-3.8s-.47-2.86-1.42-3.74c-.95-.88-2.4-1.33-4.35-1.33h-5.23v10.3Z"/>
    <path class="l" d="M209.8,26.01v9.09h9.91v2.92h-9.91v9.36h11.08v2.92h-14.62v-27.22h14.62v2.93h-11.08Z"/>
    <path class="l" d="M242.32,44.26h-11.86l-2.18,6.04h-3.74l9.83-27.03h4.09l9.79,27.03h-3.74l-2.18-6.04ZM241.31,41.38l-4.91-13.73-4.91,13.73h9.83Z"/>
    <path class="l" d="M256.35,49.62c-1.42-.64-2.53-1.52-3.33-2.65s-1.22-2.44-1.25-3.92h3.78c.13,1.27.66,2.35,1.58,3.22.92.87,2.27,1.31,4.04,1.31s3.02-.42,4-1.27c.98-.84,1.46-1.93,1.46-3.26,0-1.04-.29-1.88-.86-2.54-.57-.65-1.29-1.14-2.14-1.48-.86-.34-2.02-.7-3.47-1.09-1.79-.47-3.23-.94-4.31-1.4-1.08-.47-2-1.2-2.77-2.2-.77-1-1.15-2.35-1.15-4.04,0-1.48.38-2.79,1.13-3.94s1.81-2.03,3.18-2.65,2.93-.94,4.7-.94c2.55,0,4.63.64,6.26,1.91,1.62,1.27,2.54,2.96,2.75,5.07h-3.9c-.13-1.04-.68-1.96-1.64-2.75-.96-.79-2.24-1.19-3.82-1.19-1.48,0-2.69.38-3.63,1.15-.94.77-1.4,1.84-1.4,3.22,0,.99.28,1.79.84,2.42.56.62,1.25,1.1,2.07,1.42.82.33,1.97.7,3.45,1.11,1.79.49,3.24.98,4.33,1.46,1.09.48,2.03,1.22,2.81,2.22s1.17,2.36,1.17,4.08c0,1.33-.35,2.57-1.05,3.74s-1.74,2.12-3.12,2.85c-1.38.73-3,1.09-4.88,1.09s-3.4-.32-4.82-.96Z"/>
    <path class="l" d="M278.98,26.01v9.09h9.91v2.92h-9.91v9.36h11.08v2.92h-14.62v-27.22h14.62v2.93h-11.08Z"/>
    <path class="l" d="M304.41,44.03v-2.69l13.69-18.95h4.25v18.56h3.9v3.08h-3.9v6.28h-3.51v-6.28h-14.43ZM319,26.09l-10.49,14.86h10.49v-14.86Z"/>
    <path class="l" d="M343.96,49.82c-1.3-.56-2.33-1.34-3.08-2.34-.75-1-1.17-2.15-1.25-3.45h3.67c.1,1.07.6,1.94,1.5,2.61.9.68,2.07,1.01,3.53,1.01,1.35,0,2.42-.3,3.2-.9.78-.6,1.17-1.35,1.17-2.26s-.42-1.63-1.25-2.09c-.83-.45-2.12-.9-3.86-1.35-1.59-.42-2.88-.84-3.88-1.27-1-.43-1.86-1.07-2.57-1.91-.72-.84-1.07-1.96-1.07-3.33,0-1.09.33-2.09.98-3,.65-.91,1.57-1.63,2.77-2.16,1.2-.53,2.56-.8,4.09-.8,2.37,0,4.28.6,5.73,1.79,1.46,1.2,2.24,2.83,2.34,4.91h-3.55c-.08-1.12-.53-2.01-1.35-2.69-.82-.68-1.92-1.01-3.29-1.01-1.27,0-2.29.27-3.04.82-.75.55-1.13,1.26-1.13,2.15,0,.7.23,1.28.68,1.74.46.46,1.03.82,1.72,1.09.69.27,1.64.58,2.87.92,1.53.42,2.78.83,3.74,1.23.96.4,1.79,1.01,2.48,1.81.69.81,1.05,1.86,1.07,3.16,0,1.17-.33,2.22-.98,3.16-.65.94-1.57,1.67-2.75,2.2-1.18.53-2.54.8-4.08.8-1.64,0-3.11-.28-4.41-.84Z"/>
    <path class="l" d="M365.49,31.86v12.6c0,1.04.22,1.77.66,2.2.44.43,1.21.64,2.3.64h2.61v3h-3.2c-1.98,0-3.46-.45-4.45-1.37-.99-.91-1.48-2.4-1.48-4.48v-12.6h-2.77v-2.93h2.77v-5.38h3.55v5.38h5.58v2.93h-5.58Z"/>
    <path class="l" d="M375.47,24.76c-.47-.47-.7-1.04-.7-1.72s.23-1.25.7-1.72c.47-.47,1.04-.7,1.72-.7s1.2.23,1.66.7c.46.47.68,1.04.68,1.72s-.23,1.25-.68,1.72c-.46.47-1.01.7-1.66.7s-1.25-.23-1.72-.7ZM378.9,28.94v21.37h-3.55v-21.37h3.55Z"/>
    <path class="l" d="M389.28,31.86v12.6c0,1.04.22,1.77.66,2.2.44.43,1.21.64,2.3.64h2.61v3h-3.2c-1.98,0-3.46-.45-4.45-1.37-.99-.91-1.48-2.4-1.48-4.48v-12.6h-2.77v-2.93h2.77v-5.38h3.55v5.38h5.58v2.93h-5.58Z"/>
    <path class="l" d="M399.14,33.79c.88-1.65,2.11-2.93,3.69-3.84,1.57-.91,3.37-1.37,5.4-1.37,2.63,0,4.79.64,6.49,1.91,1.7,1.27,2.83,3.04,3.37,5.3h-3.82c-.36-1.3-1.07-2.33-2.12-3.08-1.05-.75-2.36-1.13-3.92-1.13-2.03,0-3.67.7-4.91,2.09-1.25,1.39-1.87,3.36-1.87,5.91s.62,4.56,1.87,5.97c1.25,1.4,2.89,2.11,4.91,2.11,1.56,0,2.86-.36,3.9-1.09,1.04-.73,1.75-1.77,2.14-3.12h3.82c-.57,2.18-1.72,3.93-3.43,5.25-1.72,1.31-3.86,1.97-6.44,1.97-2.03,0-3.83-.45-5.4-1.37-1.57-.91-2.8-2.2-3.69-3.86-.88-1.66-1.33-3.61-1.33-5.85s.44-4.14,1.33-5.79Z"/>
    <path class="l" d="M437.79,29.58c1.3.69,2.32,1.72,3.06,3.1.74,1.38,1.11,3.06,1.11,5.03v12.6h-3.51v-12.09c0-2.13-.53-3.76-1.6-4.89-1.07-1.13-2.52-1.7-4.37-1.7s-3.36.58-4.46,1.76c-1.11,1.17-1.66,2.87-1.66,5.11v11.82h-3.55v-28.86h3.55v10.53c.7-1.09,1.67-1.94,2.91-2.54,1.24-.6,2.62-.9,4.15-.9,1.61,0,3.07.35,4.37,1.03Z"/>
    <path class="l" d="M467.16,40.95h-17.08c.13,2.11.85,3.75,2.17,4.93,1.31,1.18,2.91,1.77,4.78,1.77,1.53,0,2.81-.36,3.84-1.07,1.03-.71,1.75-1.67,2.16-2.87h3.82c-.57,2.05-1.72,3.72-3.43,5.01-1.72,1.29-3.85,1.93-6.4,1.93-2.03,0-3.84-.45-5.44-1.37-1.6-.91-2.85-2.2-3.76-3.88-.91-1.68-1.37-3.62-1.37-5.83s.44-4.15,1.33-5.81c.88-1.66,2.13-2.94,3.72-3.84s3.44-1.35,5.52-1.35,3.82.44,5.38,1.33c1.56.88,2.76,2.1,3.61,3.65.84,1.55,1.27,3.3,1.27,5.25,0,.68-.04,1.39-.12,2.15ZM462.71,34.57c-.6-.98-1.41-1.72-2.44-2.22-1.03-.51-2.17-.76-3.41-.76-1.79,0-3.32.57-4.58,1.72-1.26,1.14-1.98,2.73-2.17,4.76h13.49c0-1.35-.3-2.52-.9-3.49Z"/>
    <path class="l" d="M475.11,49.82c-1.3-.56-2.33-1.34-3.08-2.34-.75-1-1.17-2.15-1.25-3.45h3.67c.1,1.07.6,1.94,1.5,2.61.9.68,2.07,1.01,3.53,1.01,1.35,0,2.42-.3,3.2-.9.78-.6,1.17-1.35,1.17-2.26s-.42-1.63-1.25-2.09c-.83-.45-2.12-.9-3.86-1.35-1.59-.42-2.88-.84-3.88-1.27-1-.43-1.86-1.07-2.57-1.91-.72-.84-1.07-1.96-1.07-3.33,0-1.09.33-2.09.98-3,.65-.91,1.57-1.63,2.77-2.16,1.2-.53,2.56-.8,4.09-.8,2.37,0,4.28.6,5.73,1.79,1.46,1.2,2.24,2.83,2.34,4.91h-3.55c-.08-1.12-.53-2.01-1.35-2.69-.82-.68-1.92-1.01-3.29-1.01-1.27,0-2.29.27-3.04.82-.75.55-1.13,1.26-1.13,2.15,0,.7.23,1.28.68,1.74.46.46,1.03.82,1.72,1.09.69.27,1.64.58,2.87.92,1.53.42,2.78.83,3.74,1.23.96.4,1.79,1.01,2.48,1.81.69.81,1.05,1.86,1.07,3.16,0,1.17-.33,2.22-.98,3.16-.65.94-1.57,1.67-2.75,2.2-1.18.53-2.54.8-4.08.8-1.64,0-3.11-.28-4.41-.84Z"/>
  </g>
  <g class="h">
    <path class="j" d="M560.46,451.19h-56.46c-5.25,0-10.11,2.8-12.73,7.35l-28.23,48.89c-2.63,4.55-2.63,10.15,0,14.7l28.23,48.89c2.63,4.55,7.48,7.35,12.73,7.35h56.46c5.25,0,10.11-2.8,12.73-7.35l28.23-48.89c2.63-4.55,2.63-10.15,0-14.7l-28.23-48.89c-2.63-4.55-7.48-7.35-12.73-7.35Z"/>
    <path class="k" d="M557.64,457.55h-50.81c-4.73,0-9.09,2.52-11.46,6.62l-25.41,44c-2.36,4.09-2.36,9.14,0,13.23l25.41,44c2.36,4.09,6.73,6.62,11.46,6.62h50.81c4.73,0,9.09-2.52,11.46-6.62l25.41-44c2.36-4.09,2.36-9.14,0-13.23l-25.41-44c-2.36-4.09-6.73-6.62-11.46-6.62h0Z"/>
    <g>
      <path class="m" d="M519.15,530c-7.92,5.83-5.14,22.08-5.14,22.08"/>
      <path class="m" d="M514.08,517.25c8.54,6.36,6.74,16.78,6.46,34.83"/>
      <path class="m" d="M518.18,522.64c-14.17,3.61-10.97,29.45-10.97,29.45"/>
      <path class="m" d="M513.46,516.53c-17.5,10.97-12.5,35.56-12.5,35.56"/>
      <line class="m" x1="498.62" y1="473.15" x2="498.32" y2="520.28"/>
      <line class="m" x1="546.04" y1="472.65" x2="517.35" y2="504.86"/>
      <path class="m" d="M554.51,473.06s-34.67,40.27-41.61,44.02"/>
      <line class="m" x1="564.93" y1="473.34" x2="524.98" y2="517.36"/>
      <line class="m" x1="571.38" y1="552.64" x2="537.01" y2="508.21"/>
      <path class="m" d="M505.37,473.15s-.45,27.13-.14,34.77c.31,7.64-4.27,9.72-4.27,9.72"/>
      <path class="m" d="M511.82,473.15s.3,17.55.2,28.24c-.1,10.69-5.51,10.83-5.51,10.83"/>
      <path class="m" d="M518.62,473.15s.53,20.32-.72,28.94c-1.47,10.11-16.81,12.64-20.7,21.95-3.89,9.31-2.92,28.06-2.92,28.06"/>
      <line class="m" x1="563.04" y1="552.64" x2="531.73" y2="513.9"/>
      <line class="m" x1="553.74" y1="552.64" x2="525.68" y2="517.92"/>
    </g>
  </g>
</svg>