<?xml version="1.0" encoding="UTF-8"?>
<svg id="a" data-name="Layer 1" xmlns="http://www.w3.org/2000/svg" viewBox="0 0 493.6 442.86">
  <defs>
    <style>
      .b {
        fill: #52682d;
      }

      .c {
        fill: #fff;
        stroke: #52682d;
        stroke-width: 16.24px;
      }

      .c, .d {
        stroke-linejoin: round;
      }

      .d {
        fill: none;
        stroke: #6e8b3d;
        stroke-width: 11.37px;
      }
    </style>
  </defs>
  <path class="c" d="M341.49,8.12h-189.37c-17.62,0-33.9,9.4-42.7,24.65L14.73,196.78c-8.81,15.26-8.81,34.05,0,49.31l94.69,164c8.81,15.26,25.09,24.65,42.7,24.65h189.37c17.62,0,33.9-9.4,42.7-24.65l94.69-164c8.81-15.26,8.81-34.05,0-49.31l-94.69-164c-8.81-15.26-25.09-24.65-42.7-24.65Z"/>
  <path class="d" d="M326.34,37.97h-159.07c-14.8,0-28.47,7.89-35.87,20.71L51.86,196.44c-7.4,12.82-7.4,28.6,0,41.42l79.54,137.76c7.4,12.82,21.07,20.71,35.87,20.71h159.07c14.8,0,28.47-7.89,35.87-20.71l79.54-137.76c7.4-12.82,7.4-28.6,0-41.42l-79.54-137.76c-7.4-12.82-21.07-20.71-35.87-20.71Z"/>
  <path class="b" d="M222.83,141.72l10.05,4.18v177.9c-23.39-9.54-48.39-14.42-73.66-14.42h-16.54c-4.13,0-7.52-3.38-7.52-7.52v-165.36c0-4.13,3.38-7.52,7.52-7.52h16.54c21.84,0,43.45,4.32,63.61,12.73ZM321.58,309.38c-25.27,0-50.27,4.89-73.66,14.42v-177.9l10.05-4.18c20.15-8.41,41.76-12.73,63.61-12.73h16.54c4.13,0,7.52,3.38,7.52,7.52v165.36c0,4.13-3.38,7.52-7.52,7.52h-16.54ZM240.4,132.74l-11.79-4.93c-21.99-9.16-45.57-13.86-69.39-13.86h-16.54c-12.45,0-22.55,10.1-22.55,22.55v165.36c0,12.45,10.1,22.55,22.55,22.55h16.54c23.82,0,47.4,4.7,69.39,13.86l6.01,2.49c3.71,1.55,7.85,1.55,11.56,0l6.01-2.49c21.99-9.16,45.57-13.86,69.39-13.86h16.54c12.45,0,22.55-10.1,22.55-22.55v-165.36c0-12.45-10.1-22.55-22.55-22.55h-16.54c-23.82,0-47.4,4.7-69.39,13.86l-11.79,4.93ZM165.24,159.05c-4.13,0-7.52,3.38-7.52,7.52s3.38,7.52,7.52,7.52h5.73c9.87,0,19.64,2.3,28.47,6.72,3.71,1.88,8.22.33,10.1-3.38,1.88-3.71.33-8.22-3.38-10.1-10.95-5.45-22.97-8.31-35.19-8.31l-5.73.05ZM309.84,159.05c-12.21,0-24.29,2.87-35.19,8.31-3.71,1.88-5.21,6.39-3.38,10.1,1.83,3.71,6.39,5.21,10.1,3.38,8.83-4.42,18.6-6.72,28.47-6.72h5.73c4.13,0,7.52-3.38,7.52-7.52s-3.38-7.52-7.52-7.52h-5.73v-.05ZM165.24,204.15c-4.13,0-7.52,3.38-7.52,7.52s3.38,7.52,7.52,7.52h5.73c9.87,0,19.64,2.3,28.47,6.72,3.71,1.88,8.22.33,10.1-3.38,1.88-3.71.33-8.22-3.38-10.1-10.95-5.45-22.97-8.31-35.19-8.31l-5.73.05ZM309.84,204.15c-12.21,0-24.29,2.87-35.19,8.31-3.71,1.88-5.21,6.39-3.38,10.1,1.83,3.71,6.39,5.21,10.1,3.38,8.83-4.42,18.6-6.72,28.47-6.72h5.73c4.13,0,7.52-3.38,7.52-7.52s-3.38-7.52-7.52-7.52h-5.73v-.05ZM165.24,249.25c-4.13,0-7.52,3.38-7.52,7.52s3.38,7.52,7.52,7.52h5.73c9.87,0,19.64,2.3,28.47,6.72,3.71,1.88,8.22.33,10.1-3.38,1.88-3.71.33-8.22-3.38-10.1-10.95-5.45-22.97-8.31-35.19-8.31l-5.73.05ZM309.84,249.25c-12.21,0-24.29,2.87-35.19,8.31-3.71,1.88-5.21,6.39-3.38,10.1,1.83,3.71,6.39,5.21,10.1,3.38,8.83-4.42,18.6-6.72,28.47-6.72h5.73c4.13,0,7.52-3.38,7.52-7.52s-3.38-7.52-7.52-7.52h-5.73v-.05Z"/>
</svg>