<?xml version="1.0" encoding="UTF-8"?>
<svg id="Layer_1" xmlns="http://www.w3.org/2000/svg" version="1.1" xmlns:xlink="http://www.w3.org/1999/xlink" viewBox="0 0 36.8 33.1">
  <!-- Generator: Adobe Illustrator 29.8.2, SVG Export Plug-In . SVG Version: 2.1.1 Build 3)  -->
  <defs>
    <style>
      .st0 {
        fill: #fff;
      }

      .st1, .st2 {
        fill: none;
      }

      .st3 {
        fill: #231f20;
      }

      .st2 {
        stroke: #231f20;
        stroke-width: .9px;
      }

      .st4 {
        clip-path: url(#clippath);
      }
    </style>
    <clipPath id="clippath">
      <polyline class="st1" points="0 0 0 33.1 36.8 33.1 36.8 0"/>
    </clipPath>
  </defs>
  <path class="st0" d="M9.7,23.5s-1.8,2.7-3.3,2.5c-1.5-.2-6-4.4-6-12.2S3.8.6,6.5.6s3,1.9,3.5,2.3"/>
  <g class="st4">
    <path class="st2" d="M9.7,23.5s-1.8,2.7-3.3,2.5c-1.5-.2-6-4.4-6-12.2S3.8.6,6.5.6s3,1.9,3.5,2.3M3.3,23.8s1.1-15.1,6.1-11.8M1.9,21.2S3.1,3.9,9.5,8.9M.5,14.6S3.4.2,9.4,5.7M5.3,14.5s.5,8.2,4.1,2.1M4,18.9s.7,8,5.5,1.3"/>
    <path class="st0" d="M27,23.4s1.8,2.7,3.3,2.5c1.5-.2,6-4.4,6-12.2S32.9.5,30.3.5s-2.9,1.9-3.5,2.3"/>
    <path class="st2" d="M27,23.4s1.8,2.7,3.3,2.5c1.5-.2,6-4.4,6-12.2S32.9.5,30.3.5s-2.9,1.9-3.5,2.3M33.5,23.6s-1.1-15.1-6.1-11.8M34.8,21.1s-1.2-17.3-7.6-12.3M36.3,14.5S33.3,0,27.3,5.6M31.5,14.4s-.5,8.2-4.1,2.1M32.7,18.8s-.7,8-5.5,1.3"/>
  </g>
  <polyline class="st3" points="27.6 1.7 27.6 24.2 8.9 24.2 8.9 1.7 27.6 1.7"/>
  <path class="st0" d="M15.5,11.8c0-1,.3-1.7.8-2.1.5-.5,1.2-.7,2.2-.7,2.3,0,2.9.9,2.9,2.6s-.3,1.6-1.3,1.9h0c1.1.2,1.5,1.1,1.5,2.1,0,2.1-1,3-3,3s-3.1-.7-3.1-3h2.3c0,.5,0,.9.2,1.1.1.2.3.3.6.3.6,0,.7-.3.7-1.4s-.3-1.2-.9-1.2h-.6v-1.5h.4c.7,0,1.1-.2,1.1-1.3s-.2-1-.6-1-.7.3-.7,1.3h-2.2"/>
  <polyline class="st3" points="10.5 33 10.5 28 11.5 28 11.5 32.2 13.3 32.2 13.3 33 10.5 33"/>
  <polyline class="st3" points="13.8 33 13.8 28 14.8 28 14.8 33 13.8 33"/>
  <path class="st3" d="M17.8,29.5c0-.4-.2-.8-.6-.8s-.7.5-.7,1.8.1,2,.7,2,.6-.3.6-.8v-.5h-.7v-.7h1.6v2.7h-.7v-.5h0c-.2.4-.6.6-1,.6-1.2,0-1.5-.9-1.5-2.7s.4-2.5,1.7-2.5,1.6.6,1.6,1.6h-1"/>
  <polyline class="st3" points="19.4 28 20.5 28 20.5 29.9 21.6 29.9 21.6 28 22.6 28 22.6 33 21.6 33 21.6 30.8 20.5 30.8 20.5 33 19.4 33 19.4 28"/>
  <polyline class="st3" points="26.3 28 26.3 28.8 25.2 28.8 25.2 33 24.2 33 24.2 28.8 23.1 28.8 23.1 28 26.3 28"/>
</svg>