<?xml version="1.0" encoding="UTF-8"?>
<svg id="j" data-name="Layer 9" xmlns="http://www.w3.org/2000/svg" viewBox="0 0 515 515">
  <defs>
    <style>
      .n {
        fill-rule: evenodd;
        stroke-width: 18.24px;
      }

      .n, .o, .p {
        stroke: #fff;
      }

      .n, .p {
        fill: #52682d;
      }

      .o {
        fill: none;
        stroke-width: 7px;
      }

      .o, .p {
        stroke-miterlimit: 10;
      }
    </style>
  </defs>
  <path class="p" d="M351.97,44.68h-188.94c-17.58,0-33.82,9.38-42.6,24.59L25.95,232.9c-8.79,15.23-8.79,33.97,0,49.2l94.47,163.63c8.79,15.23,25.03,24.59,42.6,24.59h188.94c17.58,0,33.82-9.38,42.6-24.59l94.47-163.63c8.79-15.23,8.79-33.97,0-49.2l-94.47-163.63c-8.79-15.23-25.03-24.59-42.6-24.59Z"/>
  <path class="o" d="M336.85,78.73h-158.71c-14.77,0-28.41,7.87-35.79,20.66L63,236.84c-7.38,12.79-7.38,28.53,0,41.33l79.36,137.45c7.38,12.79,21.02,20.66,35.79,20.66h158.71c14.77,0,28.41-7.87,35.79-20.66l79.36-137.45c7.38-12.79,7.38-28.53,0-41.33l-79.36-137.45c-7.38-12.79-21.02-20.66-35.79-20.66h0Z"/>
  <path class="n" d="M390.51,223.23c0,36.83-9.19,60.28-49.19,77.38-5.1,2.18-8.09,88.6-13.59,90.27-5.04,1.53-39.98-72.97-45.31-71.9-11.03,2.21-12.95,3.39-24.92,3.39-73.46,0-133.01-44.39-133.01-99.14s59.55-99.14,133.01-99.14,133.01,44.39,133.01,99.14Z"/>
</svg>