<?xml version="1.0" encoding="UTF-8"?>
<svg id="a" data-name="Layer 1" xmlns="http://www.w3.org/2000/svg" xmlns:xlink="http://www.w3.org/1999/xlink" viewBox="0 0 290 213">
  <defs>
    <style>
      .e {
        fill: url(#b);
        filter: url(#c);
        stroke: #999;
        stroke-miterlimit: 10;
      }

      .f {
        fill: #52682d;
      }
    </style>
    <linearGradient id="b" x1="98.94" y1="137.14" x2="172.44" y2="12.65" gradientUnits="userSpaceOnUse">
      <stop offset="0" stop-color="#fcfcfc"/>
      <stop offset="1" stop-color="#dedee0"/>
    </linearGradient>
    <filter id="c" data-name="drop-shadow-1" x="0" y="0" width="290" height="213" filterUnits="userSpaceOnUse">
      <feOffset dx="8" dy="11"/>
      <feGaussianBlur result="d" stdDeviation="5"/>
      <feFlood flood-color="#000" flood-opacity=".23"/>
      <feComposite in2="d" operator="in"/>
      <feComposite in="SourceGraphic"/>
    </filter>
  </defs>
  <path class="e" d="M185.93,4.56h-98C43.93,4.56,7.93,35.27,7.93,72.8s36,68.25,80,68.25h29.65l45.69,43.95s-4.65-25.19,8.51-43.95h14.16c44,0,80-30.71,80-68.25S229.93,4.56,185.93,4.56Z"/>
  <g>
    <path class="f" d="M59.41,60.39c.26-.84.67-2.23,1.23-4.17.57-1.94,1.31-4.71,2.22-8.31.91-3.6,2.04-8.18,3.37-13.73,1.33-5.56,2.9-12.39,4.69-20.5.22-.36.53-.61.93-.74.4-.13.8-.16,1.21-.11.4.05.74.18,1.01.38.27.2.39.43.36.69l10.8,26.26,5.59-1.7c.47,0,.88.13,1.21.38.33.26.51.57.55.93.04.37-.09.76-.38,1.18-.29.42-.8.76-1.54,1.01-.29.11-.68.23-1.15.36-.48.13-.95.25-1.43.36-.48.11-.88.22-1.21.33-.33.11-.49.22-.49.33l6.08,16.23c-.07.18-.15.41-.22.69-.07.27-.22.49-.44.66-.22.16-.55.22-.99.16-.44-.05-1.06-.32-1.86-.79l-6.3-16.12c-.77.22-1.72.43-2.85.63-1.13.2-2.32.4-3.56.6-1.24.2-2.49.44-3.76.71-1.26.27-2.42.61-3.48,1.01-1.06.4-1.96.89-2.69,1.45-.73.57-1.17,1.25-1.32,2.06-.07.51-.21,1.35-.41,2.52-.2,1.17-.39,2.34-.58,3.51-.22,1.39-.48,2.89-.77,4.5-.66.66-1.25.88-1.78.66-.53-.22-1.22-.69-2.06-1.43ZM73.17,19.72l-5.81,24.4c.62-.22,1.48-.46,2.58-.71,1.1-.26,2.28-.53,3.56-.82,1.28-.29,2.57-.58,3.87-.88,1.3-.29,2.48-.6,3.54-.93l-7.73-21.05Z"/>
    <path class="f" d="M94.94,56.45c.69.55,1.54.84,2.55.88,1,.04,2.06-.1,3.18-.41,1.11-.31,2.25-.77,3.4-1.37,1.15-.6,2.21-1.27,3.18-2,.97-.73,1.81-1.51,2.52-2.33.71-.82,1.2-1.61,1.45-2.36.26-.75.24-1.43-.05-2.06-.29-.62-.95-1.11-1.97-1.48-1.86.44-3.73.79-5.59,1.04-1.86.26-3.54.26-5.02,0-1.48-.26-2.68-.86-3.59-1.81-.91-.95-1.33-2.41-1.26-4.39.11-1.9.63-3.68,1.56-5.35.93-1.66,2.12-3.08,3.56-4.25,1.44-1.17,3.05-2.06,4.82-2.69,1.77-.62,3.57-.88,5.4-.77.37.04.7.06,1.01.08.31.02.59.08.85.19.26.11.45.27.58.49.13.22.17.55.14.99-.04.55-.24.99-.6,1.32-.37.33-.86.46-1.48.38-2.16-.44-4.09-.35-5.81.27-1.72.62-3.14,1.49-4.28,2.6-1.13,1.12-1.94,2.37-2.41,3.76-.48,1.39-.55,2.65-.22,3.78.69,1.32,1.6,2.15,2.71,2.49,1.11.35,2.3.47,3.56.36,1.26-.11,2.55-.3,3.86-.58,1.32-.27,2.5-.36,3.56-.27,1.06.09,1.94.49,2.63,1.21.69.71,1.08,2.02,1.15,3.92-.04,1.21-.44,2.37-1.21,3.48-.77,1.12-1.75,2.16-2.93,3.12-1.19.97-2.51,1.85-3.97,2.63-1.46.79-2.92,1.43-4.36,1.95-1.44.51-2.8.86-4.06,1.04-1.26.18-2.27.16-3.04-.06-.84-.73-1.28-1.45-1.32-2.17-.04-.71.46-1.27,1.48-1.67Z"/>
    <path class="f" d="M116.43,14.73c.84-.84,1.51-1.19,2-1.04.49.15.87.64,1.12,1.48l.11,30.54,14.2-19.19c.62,0,1.14.1,1.56.3.42.2.63.67.63,1.4l-14.47,19.96,16.12,8c.11.15.25.39.41.74.16.35.25.69.25,1.04s-.13.68-.38.99c-.26.31-.73.48-1.43.52l-16.56-8.66v8.94c-.26.62-.53,1.02-.82,1.21-.29.18-.58.25-.88.19-.29-.06-.58-.19-.85-.41-.27-.22-.52-.42-.74-.6l-.27-45.39Z"/>
    <path class="f" d="M170.32,21.31c.33-.36.69-.59,1.07-.69.38-.09.74-.08,1.07.03.33.11.59.28.79.52.2.24.3.5.3.79l-.05,11.07c-.04.26-.2.47-.49.63-.29.16-.62.25-.99.25s-.71-.1-1.04-.3c-.33-.2-.55-.52-.66-.96v-11.35Z"/>
    <path class="f" d="M177.5,27.72c.04-.36.18-.66.44-.88.25-.22.55-.36.88-.41s.66-.02.99.11c.33.13.6.32.82.58l-.16,21.93c.69-2.63,1.32-5.24,1.89-7.81.57-2.58,1.27-4.92,2.11-7.02.84-2.1,1.9-3.84,3.18-5.21,1.28-1.37,2.98-2.15,5.1-2.33,1.13-.11,2.12.23,2.96,1.01.84.79,1.56,1.86,2.17,3.21.6,1.35,1.1,2.93,1.51,4.74.4,1.81.72,3.69.96,5.65.24,1.96.41,3.92.52,5.89.11,1.97.18,3.8.22,5.48.04,1.68.05,3.16.03,4.44-.02,1.28-.05,2.21-.08,2.8-.26.62-.7,1.03-1.34,1.23-.64.2-1.22-.06-1.73-.79-.04-.69-.05-1.89-.05-3.59s-.03-3.65-.08-5.84c-.05-2.19-.16-4.49-.33-6.88-.16-2.39-.44-4.6-.82-6.63-.38-2.03-.91-3.73-1.59-5.1s-1.54-2.15-2.6-2.33c-.91-.15-1.8.35-2.66,1.48-.86,1.13-1.68,2.63-2.47,4.5-.79,1.86-1.52,3.97-2.19,6.3-.68,2.34-1.28,4.64-1.81,6.91-.53,2.27-.98,4.35-1.34,6.25-.37,1.9-.6,3.36-.71,4.39-.11.29-.33.53-.66.71-.33.18-.69.28-1.07.3-.38.02-.77-.05-1.15-.19-.38-.15-.67-.42-.85-.82l-.06-32.07Z"/>
    <path class="f" d="M59.41,117.39c.26-.84.67-2.23,1.23-4.17.57-1.94,1.31-4.71,2.22-8.31.91-3.6,2.04-8.18,3.37-13.73,1.33-5.56,2.9-12.39,4.69-20.5.22-.36.53-.61.93-.74.4-.13.8-.16,1.21-.11.4.05.74.18,1.01.38.27.2.39.43.36.69l10.8,26.26,5.59-1.7c.47,0,.88.13,1.21.38.33.26.51.57.55.93.04.37-.09.76-.38,1.18-.29.42-.8.76-1.54,1.01-.29.11-.68.23-1.15.36-.48.13-.95.25-1.43.36-.48.11-.88.22-1.21.33-.33.11-.49.22-.49.33l6.08,16.23c-.07.18-.15.41-.22.69-.07.27-.22.49-.44.66-.22.16-.55.22-.99.16-.44-.05-1.06-.32-1.86-.79l-6.3-16.12c-.77.22-1.72.43-2.85.63-1.13.2-2.32.4-3.56.6-1.24.2-2.49.44-3.76.71-1.26.27-2.42.61-3.48,1.01-1.06.4-1.96.89-2.69,1.45-.73.57-1.17,1.25-1.32,2.06-.07.51-.21,1.35-.41,2.52-.2,1.17-.39,2.34-.58,3.51-.22,1.39-.48,2.89-.77,4.5-.66.66-1.25.88-1.78.66-.53-.22-1.22-.69-2.06-1.43ZM73.17,76.72l-5.81,24.4c.62-.22,1.48-.46,2.58-.71,1.1-.26,2.28-.53,3.56-.82,1.28-.29,2.57-.58,3.87-.88,1.3-.29,2.48-.6,3.54-.93l-7.73-21.05Z"/>
    <path class="f" d="M93.51,84.72c.04-.36.18-.66.44-.88.25-.22.55-.36.88-.41s.66-.02.99.11c.33.13.6.32.82.58l-.16,21.93c.69-2.63,1.32-5.24,1.89-7.81.57-2.58,1.27-4.92,2.11-7.02.84-2.1,1.9-3.84,3.18-5.21,1.28-1.37,2.98-2.15,5.1-2.33,1.13-.11,2.12.23,2.96,1.01.84.79,1.56,1.86,2.17,3.21.6,1.35,1.1,2.93,1.51,4.74.4,1.81.72,3.69.96,5.65.24,1.96.41,3.92.52,5.89.11,1.97.18,3.8.22,5.48.04,1.68.05,3.16.03,4.44-.02,1.28-.05,2.21-.08,2.8-.26.62-.7,1.03-1.34,1.23-.64.2-1.22-.06-1.73-.79-.04-.69-.05-1.89-.05-3.59s-.03-3.65-.08-5.84c-.05-2.19-.16-4.49-.33-6.88-.16-2.39-.44-4.6-.82-6.63-.38-2.03-.91-3.73-1.59-5.1s-1.54-2.15-2.6-2.33c-.91-.15-1.8.35-2.66,1.48-.86,1.13-1.68,2.63-2.47,4.5-.79,1.86-1.52,3.97-2.19,6.3-.68,2.34-1.28,4.64-1.81,6.91-.53,2.27-.98,4.35-1.34,6.25-.37,1.9-.6,3.36-.71,4.39-.11.29-.33.53-.66.71-.33.18-.69.28-1.07.3-.38.02-.77-.05-1.15-.19-.38-.15-.67-.42-.85-.82l-.06-32.07Z"/>
    <path class="f" d="M120.48,113.45c.69.55,1.54.84,2.55.88,1,.04,2.06-.1,3.18-.41,1.11-.31,2.25-.77,3.4-1.37,1.15-.6,2.21-1.27,3.18-2,.97-.73,1.81-1.51,2.52-2.33.71-.82,1.2-1.61,1.45-2.36.26-.75.24-1.43-.05-2.06-.29-.62-.95-1.11-1.97-1.48-1.86.44-3.73.79-5.59,1.04-1.86.26-3.54.26-5.02,0-1.48-.26-2.68-.86-3.59-1.81-.91-.95-1.33-2.41-1.26-4.39.11-1.9.63-3.68,1.56-5.35.93-1.66,2.12-3.08,3.56-4.25,1.44-1.17,3.05-2.06,4.82-2.69,1.77-.62,3.57-.88,5.4-.77.37.04.7.06,1.01.08.31.02.59.08.85.19.26.11.45.27.58.49.13.22.17.55.14.99-.04.55-.24.99-.6,1.32-.37.33-.86.46-1.48.38-2.16-.44-4.09-.35-5.81.27-1.72.62-3.14,1.49-4.28,2.6-1.13,1.12-1.94,2.37-2.41,3.76-.48,1.39-.55,2.65-.22,3.78.69,1.32,1.6,2.15,2.71,2.49,1.11.35,2.3.47,3.56.36,1.26-.11,2.55-.3,3.86-.58,1.32-.27,2.5-.36,3.56-.27,1.06.09,1.94.49,2.63,1.21.69.71,1.08,2.02,1.15,3.92-.04,1.21-.44,2.37-1.21,3.48-.77,1.12-1.75,2.16-2.93,3.12-1.19.97-2.51,1.85-3.97,2.63-1.46.79-2.92,1.43-4.36,1.95-1.44.51-2.8.86-4.06,1.04-1.26.18-2.27.16-3.04-.06-.84-.73-1.28-1.45-1.32-2.17-.04-.71.46-1.27,1.48-1.67Z"/>
    <path class="f" d="M145.76,116.96c-.11-.62-.28-1.75-.52-3.37-.24-1.63-.51-3.5-.82-5.62-.31-2.12-.64-4.37-.99-6.74-.35-2.38-.69-4.62-1.01-6.74-.33-2.12-.62-3.99-.88-5.62-.26-1.63-.44-2.75-.55-3.37.11-.66.31-1.14.6-1.45.29-.31.6-.47.93-.47s.66.11.99.33c.33.22.58.51.77.88l3.34,24.89c.11-.4.33-1.19.66-2.36.33-1.17.7-2.53,1.12-4.08.42-1.55.88-3.21,1.37-4.96.49-1.75.96-3.41,1.4-4.96.44-1.55.82-2.91,1.15-4.08.33-1.17.55-1.95.66-2.36.26-.33.57-.61.93-.85.37-.24.74-.38,1.12-.44.38-.06.76.02,1.12.22.36.2.68.56.93,1.07l7.78,25.33,3.18-27.25c.15-.36.36-.68.63-.93.27-.26.57-.37.88-.36.31.02.62.22.93.6s.59,1.03.85,1.95c-.04.22-.12.79-.25,1.73-.13.93-.28,2.07-.47,3.43-.18,1.35-.38,2.87-.6,4.55-.22,1.68-.44,3.4-.66,5.15s-.44,3.47-.66,5.15c-.22,1.68-.41,3.2-.58,4.55-.16,1.35-.3,2.49-.41,3.43-.11.93-.18,1.51-.22,1.73-.26.58-.63,1.01-1.12,1.26-.49.26-.99.37-1.48.36-.49-.02-.93-.16-1.32-.41-.38-.26-.63-.6-.74-1.04l-7.73-25.33c-.66,3.07-1.32,5.88-2,8.42-.68,2.54-1.32,4.87-1.92,6.99-.6,2.12-1.17,4.04-1.7,5.76-.53,1.72-.98,3.29-1.34,4.71-.22.4-.49.69-.82.85-.33.16-.66.25-.99.25s-.64-.07-.93-.22c-.29-.15-.51-.33-.66-.55Z"/>
    <path class="f" d="M176.4,102.76c-.26.22-.7.3-1.34.25-.64-.05-1.23-.19-1.75-.41s-.89-.52-1.07-.9c-.18-.38.04-.83.66-1.34.26-.22.54-.37.85-.47.31-.09.62-.18.93-.27.31-.09.57-.23.77-.41.2-.18.32-.47.36-.88.04-1.64.17-3.33.41-5.04.24-1.72.69-3.25,1.34-4.6.66-1.35,1.6-2.43,2.82-3.23,1.22-.8,2.84-1.11,4.85-.93.73,0,1.55.17,2.47.52.91.35,1.79.8,2.63,1.37.84.57,1.57,1.24,2.19,2.03.62.79,1,1.64,1.15,2.55.26.37.11.82-.44,1.37-.55.55-1.32,1.16-2.3,1.84-.99.68-2.1,1.36-3.34,2.06-1.24.69-2.44,1.35-3.59,1.97-1.15.62-2.17,1.17-3.04,1.64-.88.48-1.44.8-1.7.99.22,1.43.46,2.92.71,4.5.26,1.57.62,3.02,1.1,4.33.47,1.32,1.07,2.4,1.78,3.26.71.86,1.62,1.29,2.71,1.29,1.61.11,2.99-.13,4.14-.71,1.15-.58,2.11-1.35,2.88-2.3.77-.95,1.38-1.99,1.84-3.12.46-1.13.8-2.21,1.04-3.23.24-1.02.4-1.89.49-2.6.09-.71.17-1.1.25-1.18.4-.22.86-.23,1.37-.03.51.2.8.74.88,1.62.04,1.43-.27,3.05-.93,4.88-.66,1.83-1.56,3.51-2.71,5.04-1.15,1.54-2.52,2.77-4.11,3.7-1.59.93-3.28,1.25-5.07.96-1.86-.04-3.34-.58-4.44-1.62-1.1-1.04-1.96-2.3-2.6-3.78-.64-1.48-1.11-3.04-1.4-4.69-.29-1.65-.55-3.11-.77-4.39ZM190.76,90.97c-1.17-1.61-2.36-2.63-3.56-3.07s-2.45-.57-3.73-.38c-.77.11-1.44.47-2.03,1.07-.58.6-1.06,1.37-1.43,2.3-.37.93-.62,1.97-.77,3.12-.15,1.15-.16,2.33-.06,3.54l11.57-6.58Z"/>
    <path class="f" d="M200.69,116.35c-.11-5.04-.2-9.32-.27-12.83-.07-3.51-.13-6.41-.16-8.72-.04-2.3-.06-4.1-.08-5.4-.02-1.3-.04-2.26-.05-2.88-.02-.62-.03-1-.03-1.12v-.25c.04-.33.2-.6.49-.82.29-.22.61-.36.96-.41.35-.05.69,0,1.01.14.33.15.57.38.71.71l.16,12.61c.55-2.52,1.43-4.62,2.66-6.3,1.22-1.68,2.6-3.01,4.14-3.97,1.54-.97,3.13-1.6,4.8-1.89,1.66-.29,3.21-.31,4.63-.05.47.11.83.31,1.07.6.24.29.36.61.38.96.02.35-.07.68-.27.99-.2.31-.47.54-.79.69-1.64-.11-3.19.03-4.63.41-1.44.38-2.76.95-3.95,1.7-1.19.75-2.23,1.64-3.12,2.66-.9,1.02-1.6,2.1-2.11,3.23-.77,1.64-1.29,3.37-1.56,5.18-.27,1.81-.44,3.61-.49,5.4-.05,1.79-.05,3.49,0,5.1.05,1.61.06,3.02.03,4.22-.04.4-.21.7-.52.9-.31.2-.66.31-1.04.33-.38.02-.77-.07-1.15-.27-.38-.2-.65-.5-.79-.9Z"/>
  </g>
</svg>