<?xml version="1.0" encoding="UTF-8"?>
<svg id="j" data-name="Layer 9" xmlns="http://www.w3.org/2000/svg" viewBox="0 0 515 515">
  <defs>
    <style>
      .n, .o, .p {
        fill: #fff;
      }

      .q {
        stroke-linecap: round;
        stroke-width: 21.9px;
      }

      .q, .r, .p, .s, .t {
        stroke: #fff;
      }

      .q, .r, .s {
        fill: none;
      }

      .r {
        stroke-width: 19.42px;
      }

      .o {
        fill-rule: evenodd;
        stroke: #52682d;
        stroke-width: 2px;
      }

      .p {
        stroke-width: 19.42px;
      }

      .s {
        stroke-width: 7px;
      }

      .s, .t {
        stroke-miterlimit: 10;
      }

      .t {
        fill: #52682d;
      }
    </style>
  </defs>
  <path class="t" d="M355.77,54.99h-188.94c-17.58,0-33.82,9.38-42.6,24.59L29.76,243.21c-8.79,15.23-8.79,33.97,0,49.2l94.47,163.63c8.79,15.23,25.03,24.59,42.6,24.59h188.94c17.58,0,33.82-9.38,42.6-24.59l94.47-163.63c8.79-15.23,8.79-33.97,0-49.2l-94.47-163.63c-8.79-15.23-25.03-24.59-42.6-24.59Z"/>
  <polygon class="n" points="214.94 143.4 232.36 141.6 220.31 154.31 222.11 171.72 209.41 159.67 191.99 161.47 204.04 148.77 202.24 131.36 214.94 143.4"/>
  <polygon class="n" points="183.72 177.9 205.51 185.96 183.72 194.02 175.66 215.81 167.59 194.02 145.8 185.96 167.59 177.9 175.66 156.11 183.72 177.9"/>
  <polygon class="n" points="222.33 105.15 234.74 109.74 222.33 114.33 217.74 126.74 213.15 114.33 200.74 109.74 213.15 105.15 217.74 92.74 222.33 105.15"/>
  <g>
    <g>
      <path class="p" d="M479.15,382.34l-15.13,24.37-194.33-120.63s46.15,21.45,62.93,5.31c46.18,28.67,146.52,90.95,146.52,90.95Z"/>
      <g>
        <path class="r" d="M231.19,262.17c-17.43-10.83-24.69-30.65-16.2-44.3,8.48-13.65,29.47-15.97,46.9-5.15"/>
        <line class="r" x1="231.19" y1="262.17" x2="278.46" y2="291.51"/>
      </g>
    </g>
    <line class="q" x1="364.29" y1="319.01" x2="299.19" y2="206.7"/>
  </g>
  <g>
    <path class="o" d="M150.77,412.28c7.51,0,14.3-1.75,17.88-3.85,7.51-4.55,6.08-14.01,3.21-20.66-2.5-5.26-5.36-10.16-7.86-15.06h0c-6.08-11.55-12.87-22.77-6.79-35.37,2.14-4.56,6.08-8.77,11.08-10.86l3.57-1.41,7.87-1.75,9.3-.35,8.94.35,8.22,1.75,3.22,1.41c5,2.09,8.94,6.3,11.44,10.86,5.72,12.61-1.07,23.82-7.15,35.37h0c-2.5,4.9-5.37,9.81-7.51,15.06-3.22,6.65-4.29,16.12,2.86,20.66,3.58,2.1,10.73,3.85,17.88,3.85v9.81l-8.94-.34-8.22-1.41-3.58-1.39c-5-2.1-8.94-6.31-11.09-10.87-6.07-12.96.72-24.16,7.16-35.37h-.36c2.5-4.9,5.36-10.16,7.86-15.06,2.86-6.65,4.29-16.12-2.86-20.66-3.94-2.46-10.73-3.85-17.88-4.21-7.16.35-14.3,1.75-17.88,4.21-7.51,4.55-6.08,14.01-2.86,20.66,2.15,4.9,5,10.16,7.51,15.06h0c6.07,11.21,12.87,22.41,6.79,35.37-2.14,4.56-6.07,8.77-11.08,10.87l-3.21,1.39-8.22,1.41-9.3.34-8.94-.34"/>
    <path class="o" d="M227.9,412.28c7.51,0,14.3-1.75,17.88-3.85,7.51-4.55,6.08-14.01,3.21-20.66-2.5-5.26-5.36-10.16-7.86-15.06h0c-6.08-11.55-12.87-22.77-6.79-35.37,2.14-4.56,6.08-8.77,11.08-10.86l3.57-1.41,7.87-1.75,9.3-.35,8.94.35,8.22,1.75,3.22,1.41c5,2.09,8.94,6.3,11.44,10.86,5.72,12.61-1.07,23.82-7.15,35.37h0c-2.5,4.9-5.37,9.81-7.51,15.06-3.22,6.65-4.29,16.12,2.86,20.66,3.58,2.1,10.73,3.85,17.88,3.85v9.81l-8.94-.34-8.22-1.41-3.58-1.39c-5-2.1-8.94-6.31-11.09-10.87-6.07-12.96.72-24.16,7.16-35.37h-.36c2.5-4.9,5.36-10.16,7.86-15.06,2.86-6.65,4.29-16.12-2.86-20.66-3.94-2.46-10.73-3.85-17.88-4.21-7.16.35-14.3,1.75-17.88,4.21-7.51,4.55-6.08,14.01-2.86,20.66,2.15,4.9,5,10.16,7.51,15.06h0c6.07,11.21,12.87,22.41,6.79,35.37-2.14,4.56-6.07,8.77-11.08,10.87l-3.21,1.39-8.22,1.41-9.3.34-8.94-.34"/>
    <path class="o" d="M305.03,412.28c7.51,0,14.3-1.75,17.88-3.85,7.51-4.55,6.08-14.01,3.21-20.66-2.5-5.26-5.36-10.16-7.86-15.06h0c-6.08-11.55-12.87-22.77-6.79-35.37,2.14-4.56,6.08-8.77,11.08-10.86l3.57-1.41,7.87-1.75,9.3-.35,8.94.35,8.22,1.75,3.22,1.41c5,2.09,8.94,6.3,11.44,10.86,5.72,12.61-1.07,23.82-7.15,35.37h0c-2.5,4.9-5.37,9.81-7.51,15.06-3.22,6.65-4.29,16.12,2.86,20.66,3.58,2.1,10.73,3.85,17.88,3.85v9.81l-8.94-.34-8.22-1.41-3.58-1.39c-5-2.1-8.94-6.31-11.09-10.87-6.07-12.96.72-24.16,7.16-35.37h-.36c2.5-4.9,5.36-10.16,7.86-15.06,2.86-6.65,4.29-16.12-2.86-20.66-3.94-2.46-10.73-3.85-17.88-4.21-7.16.35-14.3,1.75-17.88,4.21-7.51,4.55-6.08,14.01-2.86,20.66,2.15,4.9,5,10.16,7.51,15.06h0c6.07,11.21,12.87,22.41,6.79,35.37-2.14,4.56-6.07,8.77-11.08,10.87l-3.21,1.39-8.22,1.41-9.3.34-8.94-.34"/>
    <path class="s" d="M340.66,84.77h-158.71c-14.77,0-28.41,7.87-35.79,20.66l-79.36,137.45c-7.38,12.79-7.38,28.53,0,41.33l79.36,137.45c7.38,12.79,21.02,20.66,35.79,20.66h158.71c14.77,0,28.41-7.87,35.79-20.66l79.36-137.45c7.38-12.79,7.38-28.53,0-41.33l-79.36-137.45c-7.38-12.79-21.02-20.66-35.79-20.66h0Z"/>
  </g>
</svg>