<?xml version="1.0" encoding="UTF-8"?>
<svg id="q" data-name="Layer 17" xmlns="http://www.w3.org/2000/svg" xmlns:xlink="http://www.w3.org/1999/xlink" viewBox="0 0 493.6 442.86">
  <defs>
    <style>
      .t {
        fill: #52682d;
      }

      .u {
        fill: #fff;
      }

      .v {
        filter: url(#r);
        stroke: #f2f4eb;
        stroke-width: 12.3px;
      }

      .v, .w {
        fill: none;
        stroke-miterlimit: 10;
      }

      .w {
        stroke: #fff;
        stroke-width: 7.27px;
      }
    </style>
    <filter id="r" data-name="drop-shadow-30" x="162.94" y="88.21" width="216.15" height="159.54" filterUnits="userSpaceOnUse">
      <feOffset dx="3.25" dy="3.25"/>
      <feGaussianBlur result="s" stdDeviation="2.32"/>
      <feFlood flood-color="#000" flood-opacity=".75"/>
      <feComposite in2="s" operator="in"/>
      <feComposite in="SourceGraphic"/>
    </filter>
  </defs>
  <g>
    <path class="t" d="M341.49,8.12h-189.37c-17.62,0-33.9,9.4-42.7,24.65L14.73,196.78c-8.81,15.26-8.81,34.05,0,49.31l94.69,164c8.81,15.26,25.09,24.65,42.7,24.65h189.37c17.62,0,33.9-9.4,42.7-24.65l94.69-164c8.81-15.26,8.81-34.05,0-49.31l-94.69-164c-8.81-15.26-25.09-24.65-42.7-24.65Z"/>
    <path class="w" d="M329.23,35.74h-164.85c-15.34,0-29.5,8.18-37.17,21.46L44.77,199.97c-7.67,13.29-7.67,29.64,0,42.92l82.43,142.76c7.67,13.29,21.84,21.46,37.17,21.46h164.85c15.34,0,29.5-8.18,37.17-21.46l82.43-142.76c7.67-13.29,7.67-29.64,0-42.92l-82.43-142.76c-7.67-13.29-21.84-21.46-37.17-21.46h0Z"/>
  </g>
  <path class="v" d="M355.1,209.71l-19.28.41-4.65,26.02-29.88-25.36-114.36-1.07c-9.85,0-17.84-13.49-17.84-30.13v-55.09c0-16.64,7.99-30.13,17.84-30.13h168.18c9.85,0,17.84,13.49,17.84,30.13v55.09c0,16.64-7.99,30.13-17.84,30.13Z"/>
  <g>
    <path class="u" d="M273.1,302.66l.05.05.05.05c.73.73,1.39,1.52,2.01,2.33l80.32-8.82c.07-.5.11-1,.11-1.5,0-2.5-.91-4.94-2.78-6.91-3.76-3.97-10.66-5.23-17.23-3.13l-63.58,16.92,1.04,1.01Z"/>
    <path class="u" d="M279.48,314.53c.04.22.06.44.1.66.02.09.03.18.04.28.09.57.16,1.14.2,1.72,0,.04.01.08.01.13l64.32,2.39c8.27-.09,15.85,4.47,19.73,11.62,3.36-1.04,6.55-2.04,9.51-3,6.27-2.03,9.81-6.9,9.81-11.74,0-1.98-.59-3.96-1.83-5.73-3.12-4.49-9.76-6.77-16.56-5.69l-85.34,9.37Z"/>
    <path class="u" d="M244.4,367.23c4.36,2.61,9.5,3.6,14.51,2.8,18.24-2.93,64.09-10.49,89.19-16.37,5.39-1.26,8.66-6.33,8.66-11.64,0-1.53-.27-3.09-.85-4.58-1.88-4.88-6.63-8.04-11.85-7.9l-65.67-2.44c-1.13,2.96-2.86,5.69-5.17,7.99-8.09,8.09-19.99,8.67-31.83,1.55l-.27-.16-.26-.18-32.66-22.64,5.6-8.08,32.66,22.64c3.83,2.3,13.09,6.65,19.81-.07,1.88-1.88,3.06-4.19,3.55-6.62.01-.06.02-.12.03-.17.06-.3.09-.6.13-.9.01-.12.03-.24.04-.36.01-.17.02-.34.02-.51,0-.19.02-.38.02-.56,0-3.33-1.27-6.65-3.81-9.19l-56.3-54.61c-4.45-4.32-10.54-6.51-16.72-6.03l-33.67,2.62-48.77-1.1v71.38s59.68.89,59.68.89l73.93,44.27Z"/>
  </g>
</svg>