<?xml version="1.0" encoding="UTF-8"?>
<svg id="a" data-name="Layer 1" xmlns="http://www.w3.org/2000/svg" viewBox="0 0 1261.3 1127.23">
  <defs>
    <style>
      .b, .c {
        fill: #52682d;
      }

      .d {
        fill: none;
        stroke-linecap: round;
        stroke-miterlimit: 10;
        stroke-width: 27px;
      }

      .d, .c {
        stroke: #fff;
      }

      .c {
        stroke-width: 26.42px;
      }
    </style>
  </defs>
  <path class="b" d="M880.83,0h-500.36c-46.55,0-89.56,24.83-112.83,65.14L17.46,498.47c-23.27,40.31-23.27,89.98,0,130.29l250.18,433.33c23.27,40.31,66.28,65.14,112.83,65.14h500.36c46.55,0,89.56-24.83,112.83-65.14l250.18-433.33c23.27-40.31,23.27-89.98,0-130.29l-250.18-433.33C970.39,24.83,927.38,0,880.83,0Z"/>
  <path class="c" d="M855.81,56.36h-450.33c-41.89,0-80.6,22.35-101.55,58.63L78.77,504.98c-20.95,36.28-20.95,80.98,0,117.26l225.16,389.99c20.95,36.28,59.66,58.63,101.55,58.63h450.33c41.89,0,80.6-22.35,101.55-58.63l225.16-389.99c20.95-36.28,20.95-80.98,0-117.26l-225.16-389.99c-20.95-36.28-59.66-58.63-101.55-58.63Z"/>
  <g>
    <path class="d" d="M514.72,698.52c-70.17,51.7-45.55,195.73-45.55,195.73"/>
    <path class="d" d="M469.8,585.52c75.7,56.37,59.7,148.7,57.24,308.72"/>
    <path class="d" d="M506.11,633.28c-125.56,32.01-97.25,260.97-97.25,260.97"/>
    <path class="d" d="M464.25,579.12c-155.1,97.25-110.79,315.13-110.79,315.13"/>
    <line class="d" x1="332.74" y1="194.64" x2="330.08" y2="612.35"/>
    <line class="d" x1="753.04" y1="190.21" x2="498.72" y2="475.71"/>
    <path class="d" d="M828.13,193.9s-307.25,356.9-368.8,390.14"/>
    <line class="d" x1="920.46" y1="196.36" x2="566.42" y2="586.5"/>
    <line class="d" x1="977.57" y1="899.17" x2="672.96" y2="505.38"/>
    <path class="d" d="M392.55,194.64s-4.02,240.44-1.24,308.15-37.84,86.17-37.84,86.17"/>
    <path class="d" d="M449.79,194.64s2.64,155.55,1.78,250.32-48.87,96-48.87,96"/>
    <path class="d" d="M510.01,194.64s4.72,180.13-6.36,256.45c-13,89.59-148.95,112.02-183.42,194.49-34.47,82.48-25.85,248.66-25.85,248.66"/>
    <line class="d" x1="903.71" y1="899.17" x2="626.18" y2="555.85"/>
    <line class="d" x1="821.24" y1="899.17" x2="572.58" y2="591.43"/>
  </g>
</svg>