<?xml version="1.0" encoding="UTF-8"?>
<svg xmlns="http://www.w3.org/2000/svg" viewBox="0 0 493.6 442.86">
  <defs>
    <style>
      .k {
        fill: #52682d;
      }

      .l {
        fill: #fff;
      }

      .m {
        stroke-width: 10.56px;
      }

      .m, .n {
        fill: none;
        stroke: #fff;
        stroke-miterlimit: 10;
      }

      .n {
        stroke-width: 7.27px;
      }
    </style>
  </defs>
  <g id="a" data-name="Layer 1">
    <path class="k" d="M341.49,8.12h-189.37c-17.62,0-33.9,9.4-42.7,24.65L14.73,196.78c-8.81,15.26-8.81,34.05,0,49.31l94.69,164c8.81,15.26,25.09,24.65,42.7,24.65h189.37c17.62,0,33.9-9.4,42.7-24.65l94.69-164c8.81-15.26,8.81-34.05,0-49.31l-94.69-164c-8.81-15.26-25.09-24.65-42.7-24.65Z"/>
  </g>
  <g id="f" data-name="troubleshoot">
    <path class="n" d="M329.23,35.74h-164.85c-15.34,0-29.5,8.18-37.17,21.46L44.77,199.97c-7.67,13.29-7.67,29.64,0,42.92l82.43,142.76c7.67,13.29,21.84,21.46,37.17,21.46h164.85c15.34,0,29.5-8.18,37.17-21.46l82.43-142.76c7.67-13.29,7.67-29.64,0-42.92l-82.43-142.76c-7.67-13.29-21.84-21.46-37.17-21.46h0Z"/>
  </g>
  <g id="j" data-name="Layer 10">
    <path class="l" d="M298.33,200.17l-78.51-45.33c-16.37-9.45-36.83,2.36-36.83,21.26v90.66c0,18.9,20.46,30.71,36.83,21.26l78.51-45.33c16.37-9.45,16.37-33.07,0-42.52Z"/>
    <circle class="m" cx="246.8" cy="221.43" r="119.23"/>
  </g>
</svg>